<?xml version="1.0" encoding="UTF-8" standalone="no"?>
<!DOCTYPE svg PUBLIC "-//W3C//DTD SVG 1.1//EN"
 "http://www.w3.org/Graphics/SVG/1.1/DTD/svg11.dtd">
<!-- Generated by graphviz version 2.40.1 (20161225.0304)
 -->
<!-- Title: snakemake_dag Pages: 1 -->
<svg width="917pt" height="846pt"
 viewBox="0.00 0.00 916.50 846.00" xmlns="http://www.w3.org/2000/svg" xmlns:xlink="http://www.w3.org/1999/xlink">
<g id="graph0" class="graph" transform="scale(1 1) rotate(0) translate(4 842)">
<title>snakemake_dag</title>
<polygon fill="#ffffff" stroke="transparent" points="-4,4 -4,-842 912.5,-842 912.5,4 -4,4"/>
<!-- 0 -->
<g id="node1" class="node">
<title>0</title>
<path fill="none" stroke="#d85656" stroke-width="2" d="M418.5,-36C418.5,-36 388.5,-36 388.5,-36 382.5,-36 376.5,-30 376.5,-24 376.5,-24 376.5,-12 376.5,-12 376.5,-6 382.5,0 388.5,0 388.5,0 418.5,0 418.5,0 424.5,0 430.5,-6 430.5,-12 430.5,-12 430.5,-24 430.5,-24 430.5,-30 424.5,-36 418.5,-36"/>
<text text-anchor="middle" x="403.5" y="-15.5" font-family="sans" font-size="10.00" fill="#000000">all</text>
</g>
<!-- 1 -->
<g id="node2" class="node">
<title>1</title>
<path fill="none" stroke="#59d856" stroke-width="2" d="M452.5,-113C452.5,-113 354.5,-113 354.5,-113 348.5,-113 342.5,-107 342.5,-101 342.5,-101 342.5,-84 342.5,-84 342.5,-78 348.5,-72 354.5,-72 354.5,-72 452.5,-72 452.5,-72 458.5,-72 464.5,-78 464.5,-84 464.5,-84 464.5,-101 464.5,-101 464.5,-107 458.5,-113 452.5,-113"/>
<text text-anchor="middle" x="403.5" y="-101" font-family="sans" font-size="10.00" fill="#000000">query_gemini</text>
<text text-anchor="middle" x="403.5" y="-90" font-family="sans" font-size="10.00" fill="#000000">family_name: outside</text>
<text text-anchor="middle" x="403.5" y="-79" font-family="sans" font-size="10.00" fill="#000000">gemini_lenient: Yes</text>
</g>
<!-- 1&#45;&gt;0 -->
<g id="edge1" class="edge">
<title>1&#45;&gt;0</title>
<path fill="none" stroke="#c0c0c0" stroke-width="2" d="M403.5,-71.7476C403.5,-63.8767 403.5,-54.7743 403.5,-46.3232"/>
<polygon fill="#c0c0c0" stroke="#c0c0c0" stroke-width="2" points="407.0001,-46.1086 403.5,-36.1087 400.0001,-46.1087 407.0001,-46.1086"/>
</g>
<!-- 2 -->
<g id="node3" class="node">
<title>2</title>
<path fill="none" stroke="#56a2d8" stroke-width="2" d="M390,-185C390,-185 317,-185 317,-185 311,-185 305,-179 305,-173 305,-173 305,-161 305,-161 305,-155 311,-149 317,-149 317,-149 390,-149 390,-149 396,-149 402,-155 402,-161 402,-161 402,-173 402,-173 402,-179 396,-185 390,-185"/>
<text text-anchor="middle" x="353.5" y="-170" font-family="sans" font-size="10.00" fill="#000000">make_gemini_db</text>
<text text-anchor="middle" x="353.5" y="-159" font-family="sans" font-size="10.00" fill="#000000">ped: COHORT</text>
</g>
<!-- 2&#45;&gt;1 -->
<g id="edge2" class="edge">
<title>2&#45;&gt;1</title>
<path fill="none" stroke="#c0c0c0" stroke-width="2" d="M365.6036,-148.9656C371.0791,-140.8071 377.6912,-130.9551 383.849,-121.7799"/>
<polygon fill="#c0c0c0" stroke="#c0c0c0" stroke-width="2" points="386.8953,-123.5217 389.5618,-113.2679 381.0829,-119.6207 386.8953,-123.5217"/>
</g>
<!-- 3 -->
<g id="node4" class="node">
<title>3</title>
<path fill="none" stroke="#d8a456" stroke-width="2" d="M475,-185C475,-185 432,-185 432,-185 426,-185 420,-179 420,-173 420,-173 420,-161 420,-161 420,-155 426,-149 432,-149 432,-149 475,-149 475,-149 481,-149 487,-155 487,-161 487,-161 487,-173 487,-173 487,-179 481,-185 475,-185"/>
<text text-anchor="middle" x="453.5" y="-164.5" font-family="sans" font-size="10.00" fill="#000000">peddy_QC</text>
</g>
<!-- 3&#45;&gt;1 -->
<g id="edge3" class="edge">
<title>3&#45;&gt;1</title>
<path fill="none" stroke="#c0c0c0" stroke-width="2" d="M441.3964,-148.9656C435.9209,-140.8071 429.3088,-130.9551 423.151,-121.7799"/>
<polygon fill="#c0c0c0" stroke="#c0c0c0" stroke-width="2" points="425.9171,-119.6207 417.4382,-113.2679 420.1047,-123.5217 425.9171,-119.6207"/>
</g>
<!-- 4 -->
<g id="node5" class="node">
<title>4</title>
<path fill="none" stroke="#567bd8" stroke-width="2" d="M425.5,-257C425.5,-257 381.5,-257 381.5,-257 375.5,-257 369.5,-251 369.5,-245 369.5,-245 369.5,-233 369.5,-233 369.5,-227 375.5,-221 381.5,-221 381.5,-221 425.5,-221 425.5,-221 431.5,-221 437.5,-227 437.5,-233 437.5,-233 437.5,-245 437.5,-245 437.5,-251 431.5,-257 425.5,-257"/>
<text text-anchor="middle" x="403.5" y="-236.5" font-family="sans" font-size="10.00" fill="#000000">merge_vcf</text>
</g>
<!-- 4&#45;&gt;2 -->
<g id="edge4" class="edge">
<title>4&#45;&gt;2</title>
<path fill="none" stroke="#c0c0c0" stroke-width="2" d="M390.8829,-220.8314C385.1828,-212.6232 378.3337,-202.7606 372.0641,-193.7323"/>
<polygon fill="#c0c0c0" stroke="#c0c0c0" stroke-width="2" points="374.8658,-191.6306 366.287,-185.4133 369.1162,-195.6234 374.8658,-191.6306"/>
</g>
<!-- 4&#45;&gt;3 -->
<g id="edge5" class="edge">
<title>4&#45;&gt;3</title>
<path fill="none" stroke="#c0c0c0" stroke-width="2" d="M416.1171,-220.8314C421.8172,-212.6232 428.6663,-202.7606 434.9359,-193.7323"/>
<polygon fill="#c0c0c0" stroke="#c0c0c0" stroke-width="2" points="437.8838,-195.6234 440.713,-185.4133 432.1342,-191.6306 437.8838,-195.6234"/>
</g>
<!-- 5 -->
<g id="node6" class="node">
<title>5</title>
<path fill="none" stroke="#56d8c9" stroke-width="2" d="M268.5,-329C268.5,-329 206.5,-329 206.5,-329 200.5,-329 194.5,-323 194.5,-317 194.5,-317 194.5,-305 194.5,-305 194.5,-299 200.5,-293 206.5,-293 206.5,-293 268.5,-293 268.5,-293 274.5,-293 280.5,-299 280.5,-305 280.5,-305 280.5,-317 280.5,-317 280.5,-323 274.5,-329 268.5,-329"/>
<text text-anchor="middle" x="237.5" y="-308.5" font-family="sans" font-size="10.00" fill="#000000">tweak_header</text>
</g>
<!-- 5&#45;&gt;4 -->
<g id="edge6" class="edge">
<title>5&#45;&gt;4</title>
<path fill="none" stroke="#c0c0c0" stroke-width="2" d="M279.3888,-292.8314C304.0872,-282.1188 335.2832,-268.588 360.2199,-257.7721"/>
<polygon fill="#c0c0c0" stroke="#c0c0c0" stroke-width="2" points="361.6626,-260.9614 369.4441,-253.7712 358.8772,-254.5395 361.6626,-260.9614"/>
</g>
<!-- 6 -->
<g id="node7" class="node">
<title>6</title>
<path fill="none" stroke="#56d8c9" stroke-width="2" d="M382.5,-329C382.5,-329 320.5,-329 320.5,-329 314.5,-329 308.5,-323 308.5,-317 308.5,-317 308.5,-305 308.5,-305 308.5,-299 314.5,-293 320.5,-293 320.5,-293 382.5,-293 382.5,-293 388.5,-293 394.5,-299 394.5,-305 394.5,-305 394.5,-317 394.5,-317 394.5,-323 388.5,-329 382.5,-329"/>
<text text-anchor="middle" x="351.5" y="-308.5" font-family="sans" font-size="10.00" fill="#000000">tweak_header</text>
</g>
<!-- 6&#45;&gt;4 -->
<g id="edge7" class="edge">
<title>6&#45;&gt;4</title>
<path fill="none" stroke="#c0c0c0" stroke-width="2" d="M364.6218,-292.8314C370.5499,-284.6232 377.6729,-274.7606 384.1933,-265.7323"/>
<polygon fill="#c0c0c0" stroke="#c0c0c0" stroke-width="2" points="387.184,-267.5693 390.2015,-257.4133 381.5092,-263.4708 387.184,-267.5693"/>
</g>
<!-- 7 -->
<g id="node8" class="node">
<title>7</title>
<path fill="none" stroke="#56d8c9" stroke-width="2" d="M616.5,-329C616.5,-329 554.5,-329 554.5,-329 548.5,-329 542.5,-323 542.5,-317 542.5,-317 542.5,-305 542.5,-305 542.5,-299 548.5,-293 554.5,-293 554.5,-293 616.5,-293 616.5,-293 622.5,-293 628.5,-299 628.5,-305 628.5,-305 628.5,-317 628.5,-317 628.5,-323 622.5,-329 616.5,-329"/>
<text text-anchor="middle" x="585.5" y="-308.5" font-family="sans" font-size="10.00" fill="#000000">tweak_header</text>
</g>
<!-- 7&#45;&gt;4 -->
<g id="edge8" class="edge">
<title>7&#45;&gt;4</title>
<path fill="none" stroke="#c0c0c0" stroke-width="2" d="M542.3685,-293.937C513.564,-282.5418 475.8143,-267.6079 446.9452,-256.1871"/>
<polygon fill="#c0c0c0" stroke="#c0c0c0" stroke-width="2" points="448.1073,-252.883 437.521,-252.4588 445.5322,-259.3921 448.1073,-252.883"/>
</g>
<!-- 8 -->
<g id="node9" class="node">
<title>8</title>
<path fill="none" stroke="#56d8c9" stroke-width="2" d="M496.5,-329C496.5,-329 434.5,-329 434.5,-329 428.5,-329 422.5,-323 422.5,-317 422.5,-317 422.5,-305 422.5,-305 422.5,-299 428.5,-293 434.5,-293 434.5,-293 496.5,-293 496.5,-293 502.5,-293 508.5,-299 508.5,-305 508.5,-305 508.5,-317 508.5,-317 508.5,-323 502.5,-329 496.5,-329"/>
<text text-anchor="middle" x="465.5" y="-308.5" font-family="sans" font-size="10.00" fill="#000000">tweak_header</text>
</g>
<!-- 8&#45;&gt;4 -->
<g id="edge9" class="edge">
<title>8&#45;&gt;4</title>
<path fill="none" stroke="#c0c0c0" stroke-width="2" d="M449.8548,-292.8314C442.6409,-284.454 433.943,-274.3531 426.0395,-265.1749"/>
<polygon fill="#c0c0c0" stroke="#c0c0c0" stroke-width="2" points="428.5333,-262.7071 419.3559,-257.4133 423.2289,-267.2748 428.5333,-262.7071"/>
</g>
<!-- 9 -->
<g id="node10" class="node">
<title>9</title>
<path fill="none" stroke="#56c9d8" stroke-width="2" d="M263,-401C263,-401 180,-401 180,-401 174,-401 168,-395 168,-389 168,-389 168,-377 168,-377 168,-371 174,-365 180,-365 180,-365 263,-365 263,-365 269,-365 275,-371 275,-377 275,-377 275,-389 275,-389 275,-395 269,-401 263,-401"/>
<text text-anchor="middle" x="221.5" y="-380.5" font-family="sans" font-size="10.00" fill="#000000">vcfanno_annotate</text>
</g>
<!-- 9&#45;&gt;5 -->
<g id="edge10" class="edge">
<title>9&#45;&gt;5</title>
<path fill="none" stroke="#c0c0c0" stroke-width="2" d="M225.5375,-364.8314C227.2487,-357.131 229.2835,-347.9743 231.1852,-339.4166"/>
<polygon fill="#c0c0c0" stroke="#c0c0c0" stroke-width="2" points="234.6554,-339.9344 233.4082,-329.4133 227.8221,-338.4159 234.6554,-339.9344"/>
</g>
<!-- 10 -->
<g id="node11" class="node">
<title>10</title>
<path fill="none" stroke="#56c9d8" stroke-width="2" d="M388,-401C388,-401 305,-401 305,-401 299,-401 293,-395 293,-389 293,-389 293,-377 293,-377 293,-371 299,-365 305,-365 305,-365 388,-365 388,-365 394,-365 400,-371 400,-377 400,-377 400,-389 400,-389 400,-395 394,-401 388,-401"/>
<text text-anchor="middle" x="346.5" y="-380.5" font-family="sans" font-size="10.00" fill="#000000">vcfanno_annotate</text>
</g>
<!-- 10&#45;&gt;6 -->
<g id="edge11" class="edge">
<title>10&#45;&gt;6</title>
<path fill="none" stroke="#c0c0c0" stroke-width="2" d="M347.7617,-364.8314C348.2965,-357.131 348.9323,-347.9743 349.5266,-339.4166"/>
<polygon fill="#c0c0c0" stroke="#c0c0c0" stroke-width="2" points="353.02,-339.6317 350.2213,-329.4133 346.0368,-339.1467 353.02,-339.6317"/>
</g>
<!-- 11 -->
<g id="node12" class="node">
<title>11</title>
<path fill="none" stroke="#56c9d8" stroke-width="2" d="M638,-401C638,-401 555,-401 555,-401 549,-401 543,-395 543,-389 543,-389 543,-377 543,-377 543,-371 549,-365 555,-365 555,-365 638,-365 638,-365 644,-365 650,-371 650,-377 650,-377 650,-389 650,-389 650,-395 644,-401 638,-401"/>
<text text-anchor="middle" x="596.5" y="-380.5" font-family="sans" font-size="10.00" fill="#000000">vcfanno_annotate</text>
</g>
<!-- 11&#45;&gt;7 -->
<g id="edge12" class="edge">
<title>11&#45;&gt;7</title>
<path fill="none" stroke="#c0c0c0" stroke-width="2" d="M593.7242,-364.8314C592.5478,-357.131 591.1489,-347.9743 589.8414,-339.4166"/>
<polygon fill="#c0c0c0" stroke="#c0c0c0" stroke-width="2" points="593.2833,-338.7699 588.3131,-329.4133 586.3636,-339.8272 593.2833,-338.7699"/>
</g>
<!-- 12 -->
<g id="node13" class="node">
<title>12</title>
<path fill="none" stroke="#56c9d8" stroke-width="2" d="M513,-401C513,-401 430,-401 430,-401 424,-401 418,-395 418,-389 418,-389 418,-377 418,-377 418,-371 424,-365 430,-365 430,-365 513,-365 513,-365 519,-365 525,-371 525,-377 525,-377 525,-389 525,-389 525,-395 519,-401 513,-401"/>
<text text-anchor="middle" x="471.5" y="-380.5" font-family="sans" font-size="10.00" fill="#000000">vcfanno_annotate</text>
</g>
<!-- 12&#45;&gt;8 -->
<g id="edge13" class="edge">
<title>12&#45;&gt;8</title>
<path fill="none" stroke="#c0c0c0" stroke-width="2" d="M469.9859,-364.8314C469.3442,-357.131 468.5812,-347.9743 467.8681,-339.4166"/>
<polygon fill="#c0c0c0" stroke="#c0c0c0" stroke-width="2" points="471.3529,-339.088 467.0344,-329.4133 464.3771,-339.6694 471.3529,-339.088"/>
</g>
<!-- 13 -->
<g id="node14" class="node">
<title>13</title>
<path fill="none" stroke="#9fd856" stroke-width="2" d="M191.5,-473C191.5,-473 129.5,-473 129.5,-473 123.5,-473 117.5,-467 117.5,-461 117.5,-461 117.5,-449 117.5,-449 117.5,-443 123.5,-437 129.5,-437 129.5,-437 191.5,-437 191.5,-437 197.5,-437 203.5,-443 203.5,-449 203.5,-449 203.5,-461 203.5,-461 203.5,-467 197.5,-473 191.5,-473"/>
<text text-anchor="middle" x="160.5" y="-452.5" font-family="sans" font-size="10.00" fill="#000000">VEP_annotate</text>
</g>
<!-- 13&#45;&gt;9 -->
<g id="edge14" class="edge">
<title>13&#45;&gt;9</title>
<path fill="none" stroke="#c0c0c0" stroke-width="2" d="M175.8929,-436.8314C182.9904,-428.454 191.548,-418.3531 199.324,-409.1749"/>
<polygon fill="#c0c0c0" stroke="#c0c0c0" stroke-width="2" points="202.1061,-411.3056 205.8999,-401.4133 196.7652,-406.7807 202.1061,-411.3056"/>
</g>
<!-- 14 -->
<g id="node15" class="node">
<title>14</title>
<path fill="none" stroke="#78d856" stroke-width="2" d="M519,-473C519,-473 378,-473 378,-473 372,-473 366,-467 366,-461 366,-461 366,-449 366,-449 366,-443 372,-437 378,-437 378,-437 519,-437 519,-437 525,-437 531,-443 531,-449 531,-449 531,-461 531,-461 531,-467 525,-473 519,-473"/>
<text text-anchor="middle" x="448.5" y="-452.5" font-family="sans" font-size="10.00" fill="#000000">merge_annovar_intervar_data</text>
</g>
<!-- 14&#45;&gt;9 -->
<g id="edge15" class="edge">
<title>14&#45;&gt;9</title>
<path fill="none" stroke="#c0c0c0" stroke-width="2" d="M391.5113,-436.9243C359.1181,-426.6498 318.4797,-413.7601 285.0579,-403.1593"/>
<polygon fill="#c0c0c0" stroke="#c0c0c0" stroke-width="2" points="285.9765,-399.7789 275.3863,-400.0917 283.8601,-406.4513 285.9765,-399.7789"/>
</g>
<!-- 14&#45;&gt;10 -->
<g id="edge17" class="edge">
<title>14&#45;&gt;10</title>
<path fill="none" stroke="#c0c0c0" stroke-width="2" d="M422.7611,-436.8314C409.9563,-427.7927 394.3091,-416.7476 380.5281,-407.0198"/>
<polygon fill="#c0c0c0" stroke="#c0c0c0" stroke-width="2" points="382.4188,-404.0703 372.2307,-401.1628 378.382,-409.7891 382.4188,-404.0703"/>
</g>
<!-- 14&#45;&gt;11 -->
<g id="edge19" class="edge">
<title>14&#45;&gt;11</title>
<path fill="none" stroke="#c0c0c0" stroke-width="2" d="M485.8466,-436.8314C505.3769,-427.3302 529.4641,-415.6121 550.1731,-405.5374"/>
<polygon fill="#c0c0c0" stroke="#c0c0c0" stroke-width="2" points="551.9607,-408.56 559.4219,-401.038 548.8984,-402.2654 551.9607,-408.56"/>
</g>
<!-- 14&#45;&gt;12 -->
<g id="edge21" class="edge">
<title>14&#45;&gt;12</title>
<path fill="none" stroke="#c0c0c0" stroke-width="2" d="M454.3039,-436.8314C456.7908,-429.0463 459.7531,-419.7729 462.5125,-411.1347"/>
<polygon fill="#c0c0c0" stroke="#c0c0c0" stroke-width="2" points="465.909,-412.0041 465.618,-401.4133 459.2409,-409.874 465.909,-412.0041"/>
</g>
<!-- 15 -->
<g id="node16" class="node">
<title>15</title>
<path fill="none" stroke="#9fd856" stroke-width="2" d="M322.5,-473C322.5,-473 260.5,-473 260.5,-473 254.5,-473 248.5,-467 248.5,-461 248.5,-461 248.5,-449 248.5,-449 248.5,-443 254.5,-437 260.5,-437 260.5,-437 322.5,-437 322.5,-437 328.5,-437 334.5,-443 334.5,-449 334.5,-449 334.5,-461 334.5,-461 334.5,-467 328.5,-473 322.5,-473"/>
<text text-anchor="middle" x="291.5" y="-452.5" font-family="sans" font-size="10.00" fill="#000000">VEP_annotate</text>
</g>
<!-- 15&#45;&gt;10 -->
<g id="edge16" class="edge">
<title>15&#45;&gt;10</title>
<path fill="none" stroke="#c0c0c0" stroke-width="2" d="M305.3788,-436.8314C311.7136,-428.5386 319.3384,-418.557 326.2926,-409.4533"/>
<polygon fill="#c0c0c0" stroke="#c0c0c0" stroke-width="2" points="329.1452,-411.4847 332.4343,-401.4133 323.5825,-407.2353 329.1452,-411.4847"/>
</g>
<!-- 16 -->
<g id="node17" class="node">
<title>16</title>
<path fill="none" stroke="#9fd856" stroke-width="2" d="M896.5,-473C896.5,-473 834.5,-473 834.5,-473 828.5,-473 822.5,-467 822.5,-461 822.5,-461 822.5,-449 822.5,-449 822.5,-443 828.5,-437 834.5,-437 834.5,-437 896.5,-437 896.5,-437 902.5,-437 908.5,-443 908.5,-449 908.5,-449 908.5,-461 908.5,-461 908.5,-467 902.5,-473 896.5,-473"/>
<text text-anchor="middle" x="865.5" y="-452.5" font-family="sans" font-size="10.00" fill="#000000">VEP_annotate</text>
</g>
<!-- 16&#45;&gt;11 -->
<g id="edge18" class="edge">
<title>16&#45;&gt;11</title>
<path fill="none" stroke="#c0c0c0" stroke-width="2" d="M822.3173,-441.0816C817.6645,-439.6662 812.991,-438.28 808.5,-437 758.9606,-422.8809 702.4082,-408.5654 660.1784,-398.2247"/>
<polygon fill="#c0c0c0" stroke="#c0c0c0" stroke-width="2" points="660.8537,-394.7868 650.309,-395.8164 659.1942,-401.5873 660.8537,-394.7868"/>
</g>
<!-- 17 -->
<g id="node18" class="node">
<title>17</title>
<path fill="none" stroke="#9fd856" stroke-width="2" d="M825.5,-617C825.5,-617 763.5,-617 763.5,-617 757.5,-617 751.5,-611 751.5,-605 751.5,-605 751.5,-593 751.5,-593 751.5,-587 757.5,-581 763.5,-581 763.5,-581 825.5,-581 825.5,-581 831.5,-581 837.5,-587 837.5,-593 837.5,-593 837.5,-605 837.5,-605 837.5,-611 831.5,-617 825.5,-617"/>
<text text-anchor="middle" x="794.5" y="-596.5" font-family="sans" font-size="10.00" fill="#000000">VEP_annotate</text>
</g>
<!-- 17&#45;&gt;12 -->
<g id="edge20" class="edge">
<title>17&#45;&gt;12</title>
<path fill="none" stroke="#c0c0c0" stroke-width="2" d="M795.3852,-580.6529C795.3599,-560.8001 792.3326,-529.2721 775.5,-509 743.6938,-470.6947 614.2799,-426.1424 534.9126,-401.6058"/>
<polygon fill="#c0c0c0" stroke="#c0c0c0" stroke-width="2" points="535.602,-398.1563 525.0152,-398.5694 533.5489,-404.8485 535.602,-398.1563"/>
</g>
<!-- 18 -->
<g id="node19" class="node">
<title>18</title>
<path fill="none" stroke="#d87d56" stroke-width="2" d="M144.5,-761C144.5,-761 34.5,-761 34.5,-761 28.5,-761 22.5,-755 22.5,-749 22.5,-749 22.5,-737 22.5,-737 22.5,-731 28.5,-725 34.5,-725 34.5,-725 144.5,-725 144.5,-725 150.5,-725 156.5,-731 156.5,-737 156.5,-737 156.5,-749 156.5,-749 156.5,-755 150.5,-761 144.5,-761"/>
<text text-anchor="middle" x="89.5" y="-740.5" font-family="sans" font-size="10.00" fill="#000000">vt_bgzip_and_tabix_vcf</text>
</g>
<!-- 18&#45;&gt;13 -->
<g id="edge22" class="edge">
<title>18&#45;&gt;13</title>
<path fill="none" stroke="#c0c0c0" stroke-width="2" d="M84.6842,-724.7061C74.8163,-683.0788 56.5021,-579.4382 97.5,-509 104.0756,-497.7024 113.9052,-487.6292 123.8557,-479.3319"/>
<polygon fill="#c0c0c0" stroke="#c0c0c0" stroke-width="2" points="126.1146,-482.0079 131.8018,-473.0689 121.7815,-476.5103 126.1146,-482.0079"/>
</g>
<!-- 28 -->
<g id="node29" class="node">
<title>28</title>
<path fill="none" stroke="#c6d856" stroke-width="2" d="M175.5,-689C175.5,-689 143.5,-689 143.5,-689 137.5,-689 131.5,-683 131.5,-677 131.5,-677 131.5,-665 131.5,-665 131.5,-659 137.5,-653 143.5,-653 143.5,-653 175.5,-653 175.5,-653 181.5,-653 187.5,-659 187.5,-665 187.5,-665 187.5,-677 187.5,-677 187.5,-683 181.5,-689 175.5,-689"/>
<text text-anchor="middle" x="159.5" y="-668.5" font-family="sans" font-size="10.00" fill="#000000">annovar</text>
</g>
<!-- 18&#45;&gt;28 -->
<g id="edge43" class="edge">
<title>18&#45;&gt;28</title>
<path fill="none" stroke="#c0c0c0" stroke-width="2" d="M107.164,-724.8314C115.4732,-716.2848 125.5264,-705.9443 134.5918,-696.6198"/>
<polygon fill="#c0c0c0" stroke="#c0c0c0" stroke-width="2" points="137.1369,-699.023 141.5982,-689.4133 132.1179,-694.1435 137.1369,-699.023"/>
</g>
<!-- 19 -->
<g id="node20" class="node">
<title>19</title>
<path fill="none" stroke="#56d87b" stroke-width="2" d="M265,-545C265,-545 144,-545 144,-545 138,-545 132,-539 132,-533 132,-533 132,-521 132,-521 132,-515 138,-509 144,-509 144,-509 265,-509 265,-509 271,-509 277,-515 277,-521 277,-521 277,-533 277,-533 277,-539 271,-545 265,-545"/>
<text text-anchor="middle" x="204.5" y="-524.5" font-family="sans" font-size="10.00" fill="#000000">process_annovar_intervar</text>
</g>
<!-- 19&#45;&gt;14 -->
<g id="edge23" class="edge">
<title>19&#45;&gt;14</title>
<path fill="none" stroke="#c0c0c0" stroke-width="2" d="M265.7566,-508.9243C299.6929,-498.9103 342.0481,-486.412 377.4349,-475.97"/>
<polygon fill="#c0c0c0" stroke="#c0c0c0" stroke-width="2" points="378.6177,-479.2703 387.2182,-473.0831 376.6365,-472.5565 378.6177,-479.2703"/>
</g>
<!-- 20 -->
<g id="node21" class="node">
<title>20</title>
<path fill="none" stroke="#56d87b" stroke-width="2" d="M428,-545C428,-545 307,-545 307,-545 301,-545 295,-539 295,-533 295,-533 295,-521 295,-521 295,-515 301,-509 307,-509 307,-509 428,-509 428,-509 434,-509 440,-515 440,-521 440,-521 440,-533 440,-533 440,-539 434,-545 428,-545"/>
<text text-anchor="middle" x="367.5" y="-524.5" font-family="sans" font-size="10.00" fill="#000000">process_annovar_intervar</text>
</g>
<!-- 20&#45;&gt;14 -->
<g id="edge24" class="edge">
<title>20&#45;&gt;14</title>
<path fill="none" stroke="#c0c0c0" stroke-width="2" d="M387.9397,-508.8314C397.8205,-500.0485 409.8324,-489.3712 420.545,-479.8489"/>
<polygon fill="#c0c0c0" stroke="#c0c0c0" stroke-width="2" points="422.918,-482.4224 428.0668,-473.1628 418.2674,-477.1906 422.918,-482.4224"/>
</g>
<!-- 21 -->
<g id="node22" class="node">
<title>21</title>
<path fill="none" stroke="#56d87b" stroke-width="2" d="M754,-545C754,-545 633,-545 633,-545 627,-545 621,-539 621,-533 621,-533 621,-521 621,-521 621,-515 627,-509 633,-509 633,-509 754,-509 754,-509 760,-509 766,-515 766,-521 766,-521 766,-533 766,-533 766,-539 760,-545 754,-545"/>
<text text-anchor="middle" x="693.5" y="-524.5" font-family="sans" font-size="10.00" fill="#000000">process_annovar_intervar</text>
</g>
<!-- 21&#45;&gt;14 -->
<g id="edge25" class="edge">
<title>21&#45;&gt;14</title>
<path fill="none" stroke="#c0c0c0" stroke-width="2" d="M631.9924,-508.9243C597.917,-498.9103 555.3882,-486.412 519.8563,-475.97"/>
<polygon fill="#c0c0c0" stroke="#c0c0c0" stroke-width="2" points="520.6141,-472.5448 510.0329,-473.0831 518.6403,-479.2608 520.6141,-472.5448"/>
</g>
<!-- 22 -->
<g id="node23" class="node">
<title>22</title>
<path fill="none" stroke="#56d87b" stroke-width="2" d="M591,-545C591,-545 470,-545 470,-545 464,-545 458,-539 458,-533 458,-533 458,-521 458,-521 458,-515 464,-509 470,-509 470,-509 591,-509 591,-509 597,-509 603,-515 603,-521 603,-521 603,-533 603,-533 603,-539 597,-545 591,-545"/>
<text text-anchor="middle" x="530.5" y="-524.5" font-family="sans" font-size="10.00" fill="#000000">process_annovar_intervar</text>
</g>
<!-- 22&#45;&gt;14 -->
<g id="edge26" class="edge">
<title>22&#45;&gt;14</title>
<path fill="none" stroke="#c0c0c0" stroke-width="2" d="M509.8079,-508.8314C499.8052,-500.0485 487.645,-489.3712 476.8001,-479.8489"/>
<polygon fill="#c0c0c0" stroke="#c0c0c0" stroke-width="2" points="479.0092,-477.1308 469.1854,-473.1628 474.3906,-482.3909 479.0092,-477.1308"/>
</g>
<!-- 23 -->
<g id="node24" class="node">
<title>23</title>
<path fill="none" stroke="#d87d56" stroke-width="2" d="M354.5,-761C354.5,-761 244.5,-761 244.5,-761 238.5,-761 232.5,-755 232.5,-749 232.5,-749 232.5,-737 232.5,-737 232.5,-731 238.5,-725 244.5,-725 244.5,-725 354.5,-725 354.5,-725 360.5,-725 366.5,-731 366.5,-737 366.5,-737 366.5,-749 366.5,-749 366.5,-755 360.5,-761 354.5,-761"/>
<text text-anchor="middle" x="299.5" y="-740.5" font-family="sans" font-size="10.00" fill="#000000">vt_bgzip_and_tabix_vcf</text>
</g>
<!-- 23&#45;&gt;15 -->
<g id="edge27" class="edge">
<title>23&#45;&gt;15</title>
<path fill="none" stroke="#c0c0c0" stroke-width="2" d="M232.1241,-731.0192C187.9333,-721.6328 135.9302,-707.1387 122.5,-689 74.8952,-624.7055 75.3192,-573.6063 122.5,-509 129.6441,-499.2173 191.8231,-481.0669 238.7022,-468.5265"/>
<polygon fill="#c0c0c0" stroke="#c0c0c0" stroke-width="2" points="239.6801,-471.8882 248.4481,-465.9407 237.8849,-465.1223 239.6801,-471.8882"/>
</g>
<!-- 30 -->
<g id="node31" class="node">
<title>30</title>
<path fill="none" stroke="#c6d856" stroke-width="2" d="M327.5,-689C327.5,-689 295.5,-689 295.5,-689 289.5,-689 283.5,-683 283.5,-677 283.5,-677 283.5,-665 283.5,-665 283.5,-659 289.5,-653 295.5,-653 295.5,-653 327.5,-653 327.5,-653 333.5,-653 339.5,-659 339.5,-665 339.5,-665 339.5,-677 339.5,-677 339.5,-683 333.5,-689 327.5,-689"/>
<text text-anchor="middle" x="311.5" y="-668.5" font-family="sans" font-size="10.00" fill="#000000">annovar</text>
</g>
<!-- 23&#45;&gt;30 -->
<g id="edge45" class="edge">
<title>23&#45;&gt;30</title>
<path fill="none" stroke="#c0c0c0" stroke-width="2" d="M302.5281,-724.8314C303.8115,-717.131 305.3376,-707.9743 306.7639,-699.4166"/>
<polygon fill="#c0c0c0" stroke="#c0c0c0" stroke-width="2" points="310.2394,-699.8526 308.4311,-689.4133 303.3347,-698.7018 310.2394,-699.8526"/>
</g>
<!-- 24 -->
<g id="node25" class="node">
<title>24</title>
<path fill="none" stroke="#d87d56" stroke-width="2" d="M891.5,-761C891.5,-761 781.5,-761 781.5,-761 775.5,-761 769.5,-755 769.5,-749 769.5,-749 769.5,-737 769.5,-737 769.5,-731 775.5,-725 781.5,-725 781.5,-725 891.5,-725 891.5,-725 897.5,-725 903.5,-731 903.5,-737 903.5,-737 903.5,-749 903.5,-749 903.5,-755 897.5,-761 891.5,-761"/>
<text text-anchor="middle" x="836.5" y="-740.5" font-family="sans" font-size="10.00" fill="#000000">vt_bgzip_and_tabix_vcf</text>
</g>
<!-- 24&#45;&gt;16 -->
<g id="edge28" class="edge">
<title>24&#45;&gt;16</title>
<path fill="none" stroke="#c0c0c0" stroke-width="2" d="M838.3141,-724.9843C843.2169,-676.2939 856.7601,-541.7961 862.6748,-483.0573"/>
<polygon fill="#c0c0c0" stroke="#c0c0c0" stroke-width="2" points="866.167,-483.3093 863.6866,-473.0089 859.2022,-482.6079 866.167,-483.3093"/>
</g>
<!-- 32 -->
<g id="node33" class="node">
<title>32</title>
<path fill="none" stroke="#c6d856" stroke-width="2" d="M721.5,-689C721.5,-689 689.5,-689 689.5,-689 683.5,-689 677.5,-683 677.5,-677 677.5,-677 677.5,-665 677.5,-665 677.5,-659 683.5,-653 689.5,-653 689.5,-653 721.5,-653 721.5,-653 727.5,-653 733.5,-659 733.5,-665 733.5,-665 733.5,-677 733.5,-677 733.5,-683 727.5,-689 721.5,-689"/>
<text text-anchor="middle" x="705.5" y="-668.5" font-family="sans" font-size="10.00" fill="#000000">annovar</text>
</g>
<!-- 24&#45;&gt;32 -->
<g id="edge47" class="edge">
<title>24&#45;&gt;32</title>
<path fill="none" stroke="#c0c0c0" stroke-width="2" d="M803.4432,-724.8314C784.8601,-714.6177 761.6158,-701.8423 742.4355,-691.3004"/>
<polygon fill="#c0c0c0" stroke="#c0c0c0" stroke-width="2" points="744.1125,-688.2284 733.6631,-686.479 740.7409,-694.3629 744.1125,-688.2284"/>
</g>
<!-- 25 -->
<g id="node26" class="node">
<title>25</title>
<path fill="none" stroke="#d87d56" stroke-width="2" d="M670.5,-761C670.5,-761 560.5,-761 560.5,-761 554.5,-761 548.5,-755 548.5,-749 548.5,-749 548.5,-737 548.5,-737 548.5,-731 554.5,-725 560.5,-725 560.5,-725 670.5,-725 670.5,-725 676.5,-725 682.5,-731 682.5,-737 682.5,-737 682.5,-749 682.5,-749 682.5,-755 676.5,-761 670.5,-761"/>
<text text-anchor="middle" x="615.5" y="-740.5" font-family="sans" font-size="10.00" fill="#000000">vt_bgzip_and_tabix_vcf</text>
</g>
<!-- 25&#45;&gt;17 -->
<g id="edge29" class="edge">
<title>25&#45;&gt;17</title>
<path fill="none" stroke="#c0c0c0" stroke-width="2" d="M679.5161,-724.9706C701.2547,-716.5914 724.5581,-704.8783 742.5,-689 761.6903,-672.0169 775.5912,-646.1813 784.1659,-626.5405"/>
<polygon fill="#c0c0c0" stroke="#c0c0c0" stroke-width="2" points="787.4469,-627.7659 788.0557,-617.1886 780.9836,-625.0776 787.4469,-627.7659"/>
</g>
<!-- 34 -->
<g id="node35" class="node">
<title>34</title>
<path fill="none" stroke="#c6d856" stroke-width="2" d="M602.5,-689C602.5,-689 570.5,-689 570.5,-689 564.5,-689 558.5,-683 558.5,-677 558.5,-677 558.5,-665 558.5,-665 558.5,-659 564.5,-653 570.5,-653 570.5,-653 602.5,-653 602.5,-653 608.5,-653 614.5,-659 614.5,-665 614.5,-665 614.5,-677 614.5,-677 614.5,-683 608.5,-689 602.5,-689"/>
<text text-anchor="middle" x="586.5" y="-668.5" font-family="sans" font-size="10.00" fill="#000000">annovar</text>
</g>
<!-- 25&#45;&gt;34 -->
<g id="edge49" class="edge">
<title>25&#45;&gt;34</title>
<path fill="none" stroke="#c0c0c0" stroke-width="2" d="M608.1821,-724.8314C605.0124,-716.9617 601.23,-707.5712 597.7187,-698.8533"/>
<polygon fill="#c0c0c0" stroke="#c0c0c0" stroke-width="2" points="600.8992,-697.3815 593.9165,-689.4133 594.4061,-699.9968 600.8992,-697.3815"/>
</g>
<!-- 26 -->
<g id="node27" class="node">
<title>26</title>
<path fill="none" stroke="#d8c356" stroke-width="2" d="M167,-838C167,-838 12,-838 12,-838 6,-838 0,-832 0,-826 0,-826 0,-809 0,-809 0,-803 6,-797 12,-797 12,-797 167,-797 167,-797 173,-797 179,-803 179,-809 179,-809 179,-826 179,-826 179,-832 173,-838 167,-838"/>
<text text-anchor="middle" x="89.5" y="-826" font-family="sans" font-size="10.00" fill="#000000">n_split_vcf</text>
<text text-anchor="middle" x="89.5" y="-815" font-family="sans" font-size="10.00" fill="#000000">region: 2:135110763&#45;162132915</text>
<text text-anchor="middle" x="89.5" y="-804" font-family="sans" font-size="10.00" fill="#000000">sample: VCFs.GATK</text>
</g>
<!-- 26&#45;&gt;18 -->
<g id="edge30" class="edge">
<title>26&#45;&gt;18</title>
<path fill="none" stroke="#c0c0c0" stroke-width="2" d="M89.5,-796.7476C89.5,-788.8767 89.5,-779.7743 89.5,-771.3232"/>
<polygon fill="#c0c0c0" stroke="#c0c0c0" stroke-width="2" points="93.0001,-771.1086 89.5,-761.1087 86.0001,-771.1087 93.0001,-771.1086"/>
</g>
<!-- 27 -->
<g id="node28" class="node">
<title>27</title>
<path fill="none" stroke="#56d8a2" stroke-width="2" d="M175,-617C175,-617 144,-617 144,-617 138,-617 132,-611 132,-605 132,-605 132,-593 132,-593 132,-587 138,-581 144,-581 144,-581 175,-581 175,-581 181,-581 187,-587 187,-593 187,-593 187,-605 187,-605 187,-611 181,-617 175,-617"/>
<text text-anchor="middle" x="159.5" y="-596.5" font-family="sans" font-size="10.00" fill="#000000">intervar</text>
</g>
<!-- 27&#45;&gt;19 -->
<g id="edge31" class="edge">
<title>27&#45;&gt;19</title>
<path fill="none" stroke="#c0c0c0" stroke-width="2" d="M170.8554,-580.8314C175.9326,-572.7079 182.0227,-562.9637 187.6176,-554.0118"/>
<polygon fill="#c0c0c0" stroke="#c0c0c0" stroke-width="2" points="190.6597,-555.7483 192.9917,-545.4133 184.7237,-552.0383 190.6597,-555.7483"/>
</g>
<!-- 28&#45;&gt;19 -->
<g id="edge32" class="edge">
<title>28&#45;&gt;19</title>
<path fill="none" stroke="#c0c0c0" stroke-width="2" d="M175.449,-652.8289C183.1924,-642.925 191.8151,-630.0493 196.5,-617 203.6004,-597.2226 205.4604,-573.5001 205.6202,-555.3764"/>
<polygon fill="#c0c0c0" stroke="#c0c0c0" stroke-width="2" points="209.1185,-555.1346 205.5382,-545.1631 202.1187,-555.1909 209.1185,-555.1346"/>
</g>
<!-- 28&#45;&gt;27 -->
<g id="edge42" class="edge">
<title>28&#45;&gt;27</title>
<path fill="none" stroke="#c0c0c0" stroke-width="2" d="M159.5,-652.8314C159.5,-645.131 159.5,-635.9743 159.5,-627.4166"/>
<polygon fill="#c0c0c0" stroke="#c0c0c0" stroke-width="2" points="163.0001,-627.4132 159.5,-617.4133 156.0001,-627.4133 163.0001,-627.4132"/>
</g>
<!-- 29 -->
<g id="node30" class="node">
<title>29</title>
<path fill="none" stroke="#56d8a2" stroke-width="2" d="M327,-617C327,-617 296,-617 296,-617 290,-617 284,-611 284,-605 284,-605 284,-593 284,-593 284,-587 290,-581 296,-581 296,-581 327,-581 327,-581 333,-581 339,-587 339,-593 339,-593 339,-605 339,-605 339,-611 333,-617 327,-617"/>
<text text-anchor="middle" x="311.5" y="-596.5" font-family="sans" font-size="10.00" fill="#000000">intervar</text>
</g>
<!-- 29&#45;&gt;20 -->
<g id="edge33" class="edge">
<title>29&#45;&gt;20</title>
<path fill="none" stroke="#c0c0c0" stroke-width="2" d="M325.6312,-580.8314C332.0811,-572.5386 339.8445,-562.557 346.9252,-553.4533"/>
<polygon fill="#c0c0c0" stroke="#c0c0c0" stroke-width="2" points="349.8019,-555.4556 353.1786,-545.4133 344.2764,-551.158 349.8019,-555.4556"/>
</g>
<!-- 30&#45;&gt;20 -->
<g id="edge34" class="edge">
<title>30&#45;&gt;20</title>
<path fill="none" stroke="#c0c0c0" stroke-width="2" d="M326.8159,-652.5801C334.386,-642.608 343.0449,-629.7465 348.5,-617 356.9563,-597.2409 361.7726,-573.3827 364.4389,-555.1965"/>
<polygon fill="#c0c0c0" stroke="#c0c0c0" stroke-width="2" points="367.9169,-555.5934 365.7717,-545.218 360.9785,-554.6666 367.9169,-555.5934"/>
</g>
<!-- 30&#45;&gt;29 -->
<g id="edge44" class="edge">
<title>30&#45;&gt;29</title>
<path fill="none" stroke="#c0c0c0" stroke-width="2" d="M311.5,-652.8314C311.5,-645.131 311.5,-635.9743 311.5,-627.4166"/>
<polygon fill="#c0c0c0" stroke="#c0c0c0" stroke-width="2" points="315.0001,-627.4132 311.5,-617.4133 308.0001,-627.4133 315.0001,-627.4132"/>
</g>
<!-- 31 -->
<g id="node32" class="node">
<title>31</title>
<path fill="none" stroke="#56d8a2" stroke-width="2" d="M721,-617C721,-617 690,-617 690,-617 684,-617 678,-611 678,-605 678,-605 678,-593 678,-593 678,-587 684,-581 690,-581 690,-581 721,-581 721,-581 727,-581 733,-587 733,-593 733,-593 733,-605 733,-605 733,-611 727,-617 721,-617"/>
<text text-anchor="middle" x="705.5" y="-596.5" font-family="sans" font-size="10.00" fill="#000000">intervar</text>
</g>
<!-- 31&#45;&gt;21 -->
<g id="edge35" class="edge">
<title>31&#45;&gt;21</title>
<path fill="none" stroke="#c0c0c0" stroke-width="2" d="M702.4719,-580.8314C701.1885,-573.131 699.6624,-563.9743 698.2361,-555.4166"/>
<polygon fill="#c0c0c0" stroke="#c0c0c0" stroke-width="2" points="701.6653,-554.7018 696.5689,-545.4133 694.7606,-555.8526 701.6653,-554.7018"/>
</g>
<!-- 32&#45;&gt;21 -->
<g id="edge36" class="edge">
<title>32&#45;&gt;21</title>
<path fill="none" stroke="#c0c0c0" stroke-width="2" d="M689.5095,-652.9169C681.8462,-643.0371 673.4834,-630.1563 669.5,-617 663.1738,-596.1058 670.1939,-572.2203 678.2435,-554.3088"/>
<polygon fill="#c0c0c0" stroke="#c0c0c0" stroke-width="2" points="681.5291,-555.5545 682.7431,-545.0295 675.2306,-552.5003 681.5291,-555.5545"/>
</g>
<!-- 32&#45;&gt;31 -->
<g id="edge46" class="edge">
<title>32&#45;&gt;31</title>
<path fill="none" stroke="#c0c0c0" stroke-width="2" d="M705.5,-652.8314C705.5,-645.131 705.5,-635.9743 705.5,-627.4166"/>
<polygon fill="#c0c0c0" stroke="#c0c0c0" stroke-width="2" points="709.0001,-627.4132 705.5,-617.4133 702.0001,-627.4133 709.0001,-627.4132"/>
</g>
<!-- 33 -->
<g id="node34" class="node">
<title>33</title>
<path fill="none" stroke="#56d8a2" stroke-width="2" d="M602,-617C602,-617 571,-617 571,-617 565,-617 559,-611 559,-605 559,-605 559,-593 559,-593 559,-587 565,-581 571,-581 571,-581 602,-581 602,-581 608,-581 614,-587 614,-593 614,-593 614,-605 614,-605 614,-611 608,-617 602,-617"/>
<text text-anchor="middle" x="586.5" y="-596.5" font-family="sans" font-size="10.00" fill="#000000">intervar</text>
</g>
<!-- 33&#45;&gt;22 -->
<g id="edge37" class="edge">
<title>33&#45;&gt;22</title>
<path fill="none" stroke="#c0c0c0" stroke-width="2" d="M572.3688,-580.8314C565.9189,-572.5386 558.1555,-562.557 551.0748,-553.4533"/>
<polygon fill="#c0c0c0" stroke="#c0c0c0" stroke-width="2" points="553.7236,-551.158 544.8214,-545.4133 548.1981,-555.4556 553.7236,-551.158"/>
</g>
<!-- 34&#45;&gt;22 -->
<g id="edge38" class="edge">
<title>34&#45;&gt;22</title>
<path fill="none" stroke="#c0c0c0" stroke-width="2" d="M572.0303,-652.9844C564.6013,-642.9214 555.9837,-629.8504 550.5,-617 542.045,-597.1866 536.9523,-573.3311 534.0234,-555.1598"/>
<polygon fill="#c0c0c0" stroke="#c0c0c0" stroke-width="2" points="537.4738,-554.567 532.5399,-545.1912 530.5501,-555.5974 537.4738,-554.567"/>
</g>
<!-- 34&#45;&gt;33 -->
<g id="edge48" class="edge">
<title>34&#45;&gt;33</title>
<path fill="none" stroke="#c0c0c0" stroke-width="2" d="M586.5,-652.8314C586.5,-645.131 586.5,-635.9743 586.5,-627.4166"/>
<polygon fill="#c0c0c0" stroke="#c0c0c0" stroke-width="2" points="590.0001,-627.4132 586.5,-617.4133 583.0001,-627.4133 590.0001,-627.4132"/>
</g>
<!-- 35 -->
<g id="node36" class="node">
<title>35</title>
<path fill="none" stroke="#d8c356" stroke-width="2" d="M377,-838C377,-838 222,-838 222,-838 216,-838 210,-832 210,-826 210,-826 210,-809 210,-809 210,-803 216,-797 222,-797 222,-797 377,-797 377,-797 383,-797 389,-803 389,-809 389,-809 389,-826 389,-826 389,-832 383,-838 377,-838"/>
<text text-anchor="middle" x="299.5" y="-826" font-family="sans" font-size="10.00" fill="#000000">n_split_vcf</text>
<text text-anchor="middle" x="299.5" y="-815" font-family="sans" font-size="10.00" fill="#000000">region: 5:155070223&#45;180915260</text>
<text text-anchor="middle" x="299.5" y="-804" font-family="sans" font-size="10.00" fill="#000000">sample: VCFs.GATK</text>
</g>
<!-- 35&#45;&gt;23 -->
<g id="edge39" class="edge">
<title>35&#45;&gt;23</title>
<path fill="none" stroke="#c0c0c0" stroke-width="2" d="M299.5,-796.7476C299.5,-788.8767 299.5,-779.7743 299.5,-771.3232"/>
<polygon fill="#c0c0c0" stroke="#c0c0c0" stroke-width="2" points="303.0001,-771.1086 299.5,-761.1087 296.0001,-771.1087 303.0001,-771.1086"/>
</g>
<!-- 36 -->
<g id="node37" class="node">
<title>36</title>
<path fill="none" stroke="#d8c356" stroke-width="2" d="M887,-838C887,-838 786,-838 786,-838 780,-838 774,-832 774,-826 774,-826 774,-809 774,-809 774,-803 780,-797 786,-797 786,-797 887,-797 887,-797 893,-797 899,-803 899,-809 899,-809 899,-826 899,-826 899,-832 893,-838 887,-838"/>
<text text-anchor="middle" x="836.5" y="-826" font-family="sans" font-size="10.00" fill="#000000">n_split_vcf</text>
<text text-anchor="middle" x="836.5" y="-815" font-family="sans" font-size="10.00" fill="#000000">region: X:1&#45;25878426</text>
<text text-anchor="middle" x="836.5" y="-804" font-family="sans" font-size="10.00" fill="#000000">sample: VCFs.GATK</text>
</g>
<!-- 36&#45;&gt;24 -->
<g id="edge40" class="edge">
<title>36&#45;&gt;24</title>
<path fill="none" stroke="#c0c0c0" stroke-width="2" d="M836.5,-796.7476C836.5,-788.8767 836.5,-779.7743 836.5,-771.3232"/>
<polygon fill="#c0c0c0" stroke="#c0c0c0" stroke-width="2" points="840.0001,-771.1086 836.5,-761.1087 833.0001,-771.1087 840.0001,-771.1086"/>
</g>
<!-- 37 -->
<g id="node38" class="node">
<title>37</title>
<path fill="none" stroke="#d8c356" stroke-width="2" d="M687,-838C687,-838 544,-838 544,-838 538,-838 532,-832 532,-826 532,-826 532,-809 532,-809 532,-803 538,-797 544,-797 544,-797 687,-797 687,-797 693,-797 699,-803 699,-809 699,-809 699,-826 699,-826 699,-832 693,-838 687,-838"/>
<text text-anchor="middle" x="615.5" y="-826" font-family="sans" font-size="10.00" fill="#000000">n_split_vcf</text>
<text text-anchor="middle" x="615.5" y="-815" font-family="sans" font-size="10.00" fill="#000000">region: 3:56577838&#45;84866755</text>
<text text-anchor="middle" x="615.5" y="-804" font-family="sans" font-size="10.00" fill="#000000">sample: VCFs.GATK</text>
</g>
<!-- 37&#45;&gt;25 -->
<g id="edge41" class="edge">
<title>37&#45;&gt;25</title>
<path fill="none" stroke="#c0c0c0" stroke-width="2" d="M615.5,-796.7476C615.5,-788.8767 615.5,-779.7743 615.5,-771.3232"/>
<polygon fill="#c0c0c0" stroke="#c0c0c0" stroke-width="2" points="619.0001,-771.1086 615.5,-761.1087 612.0001,-771.1087 619.0001,-771.1086"/>
</g>
</g>
</svg>
