<?xml version="1.0" encoding="UTF-8" standalone="no"?>
<!DOCTYPE svg PUBLIC "-//W3C//DTD SVG 1.1//EN"
 "http://www.w3.org/Graphics/SVG/1.1/DTD/svg11.dtd">
<!-- Generated by graphviz version 2.40.1 (20161225.0304)
 -->
<!-- Title: snakemake_dag Pages: 1 -->
<svg width="483pt" height="774pt"
 viewBox="0.00 0.00 482.50 774.00" xmlns="http://www.w3.org/2000/svg" xmlns:xlink="http://www.w3.org/1999/xlink">
<g id="graph0" class="graph" transform="scale(1 1) rotate(0) translate(4 770)">
<title>snakemake_dag</title>
<polygon fill="#ffffff" stroke="transparent" points="-4,4 -4,-770 478.5,-770 478.5,4 -4,4"/>
<!-- 0 -->
<g id="node1" class="node">
<title>0</title>
<path fill="none" stroke="#d85656" stroke-width="2" stroke-dasharray="5,2" d="M197,-36C197,-36 167,-36 167,-36 161,-36 155,-30 155,-24 155,-24 155,-12 155,-12 155,-6 161,0 167,0 167,0 197,0 197,0 203,0 209,-6 209,-12 209,-12 209,-24 209,-24 209,-30 203,-36 197,-36"/>
<text text-anchor="middle" x="182" y="-15.5" font-family="sans" font-size="10.00" fill="#000000">all</text>
</g>
<!-- 1 -->
<g id="node2" class="node">
<title>1</title>
<path fill="none" stroke="#56a9d8" stroke-width="2" stroke-dasharray="5,2" d="M231.5,-113C231.5,-113 132.5,-113 132.5,-113 126.5,-113 120.5,-107 120.5,-101 120.5,-101 120.5,-84 120.5,-84 120.5,-78 126.5,-72 132.5,-72 132.5,-72 231.5,-72 231.5,-72 237.5,-72 243.5,-78 243.5,-84 243.5,-84 243.5,-101 243.5,-101 243.5,-107 237.5,-113 231.5,-113"/>
<text text-anchor="middle" x="182" y="-101" font-family="sans" font-size="10.00" fill="#000000">query_gemini</text>
<text text-anchor="middle" x="182" y="-90" font-family="sans" font-size="10.00" fill="#000000">family_name: outside</text>
<text text-anchor="middle" x="182" y="-79" font-family="sans" font-size="10.00" fill="#000000">gemini_lenient: Yes</text>
</g>
<!-- 1&#45;&gt;0 -->
<g id="edge1" class="edge">
<title>1&#45;&gt;0</title>
<path fill="none" stroke="#c0c0c0" stroke-width="2" d="M182,-71.7476C182,-63.8767 182,-54.7743 182,-46.3232"/>
<polygon fill="#c0c0c0" stroke="#c0c0c0" stroke-width="2" points="185.5001,-46.1086 182,-36.1087 178.5001,-46.1087 185.5001,-46.1086"/>
</g>
<!-- 2 -->
<g id="node3" class="node">
<title>2</title>
<path fill="none" stroke="#56d86b" stroke-width="2" stroke-dasharray="5,2" d="M169.5,-185C169.5,-185 92.5,-185 92.5,-185 86.5,-185 80.5,-179 80.5,-173 80.5,-173 80.5,-161 80.5,-161 80.5,-155 86.5,-149 92.5,-149 92.5,-149 169.5,-149 169.5,-149 175.5,-149 181.5,-155 181.5,-161 181.5,-161 181.5,-173 181.5,-173 181.5,-179 175.5,-185 169.5,-185"/>
<text text-anchor="middle" x="131" y="-170" font-family="sans" font-size="10.00" fill="#000000">make_gemini_db</text>
<text text-anchor="middle" x="131" y="-159" font-family="sans" font-size="10.00" fill="#000000">ped: COHORT</text>
</g>
<!-- 2&#45;&gt;1 -->
<g id="edge2" class="edge">
<title>2&#45;&gt;1</title>
<path fill="none" stroke="#c0c0c0" stroke-width="2" d="M143.3457,-148.9656C148.9307,-140.8071 155.675,-130.9551 161.956,-121.7799"/>
<polygon fill="#c0c0c0" stroke="#c0c0c0" stroke-width="2" points="165.0223,-123.4967 167.7831,-113.2679 159.2461,-119.5425 165.0223,-123.4967"/>
</g>
<!-- 3 -->
<g id="node4" class="node">
<title>3</title>
<path fill="none" stroke="#d8a456" stroke-width="2" stroke-dasharray="5,2" d="M254,-185C254,-185 212,-185 212,-185 206,-185 200,-179 200,-173 200,-173 200,-161 200,-161 200,-155 206,-149 212,-149 212,-149 254,-149 254,-149 260,-149 266,-155 266,-161 266,-161 266,-173 266,-173 266,-179 260,-185 254,-185"/>
<text text-anchor="middle" x="233" y="-164.5" font-family="sans" font-size="10.00" fill="#000000">peddy_QC</text>
</g>
<!-- 3&#45;&gt;1 -->
<g id="edge3" class="edge">
<title>3&#45;&gt;1</title>
<path fill="none" stroke="#c0c0c0" stroke-width="2" d="M220.6543,-148.9656C215.0693,-140.8071 208.325,-130.9551 202.044,-121.7799"/>
<polygon fill="#c0c0c0" stroke="#c0c0c0" stroke-width="2" points="204.7539,-119.5425 196.2169,-113.2679 198.9777,-123.4967 204.7539,-119.5425"/>
</g>
<!-- 4 -->
<g id="node5" class="node">
<title>4</title>
<path fill="none" stroke="#56d0d8" stroke-width="2" stroke-dasharray="5,2" d="M204,-257C204,-257 160,-257 160,-257 154,-257 148,-251 148,-245 148,-245 148,-233 148,-233 148,-227 154,-221 160,-221 160,-221 204,-221 204,-221 210,-221 216,-227 216,-233 216,-233 216,-245 216,-245 216,-251 210,-257 204,-257"/>
<text text-anchor="middle" x="182" y="-236.5" font-family="sans" font-size="10.00" fill="#000000">merge_vcf</text>
</g>
<!-- 4&#45;&gt;2 -->
<g id="edge4" class="edge">
<title>4&#45;&gt;2</title>
<path fill="none" stroke="#c0c0c0" stroke-width="2" d="M169.1305,-220.8314C163.3165,-212.6232 156.3304,-202.7606 149.9354,-193.7323"/>
<polygon fill="#c0c0c0" stroke="#c0c0c0" stroke-width="2" points="152.679,-191.5505 144.0427,-185.4133 146.9669,-195.5966 152.679,-191.5505"/>
</g>
<!-- 4&#45;&gt;3 -->
<g id="edge5" class="edge">
<title>4&#45;&gt;3</title>
<path fill="none" stroke="#c0c0c0" stroke-width="2" d="M194.8695,-220.8314C200.6835,-212.6232 207.6696,-202.7606 214.0646,-193.7323"/>
<polygon fill="#c0c0c0" stroke="#c0c0c0" stroke-width="2" points="217.0331,-195.5966 219.9573,-185.4133 211.321,-191.5505 217.0331,-195.5966"/>
</g>
<!-- 5 -->
<g id="node6" class="node">
<title>5</title>
<path fill="none" stroke="#8fd856" stroke-width="2" stroke-dasharray="5,2" d="M269,-329C269,-329 207,-329 207,-329 201,-329 195,-323 195,-317 195,-317 195,-305 195,-305 195,-299 201,-293 207,-293 207,-293 269,-293 269,-293 275,-293 281,-299 281,-305 281,-305 281,-317 281,-317 281,-323 275,-329 269,-329"/>
<text text-anchor="middle" x="238" y="-308.5" font-family="sans" font-size="10.00" fill="#000000">tweak_header</text>
</g>
<!-- 5&#45;&gt;4 -->
<g id="edge6" class="edge">
<title>5&#45;&gt;4</title>
<path fill="none" stroke="#c0c0c0" stroke-width="2" d="M223.8688,-292.8314C217.4189,-284.5386 209.6555,-274.557 202.5748,-265.4533"/>
<polygon fill="#c0c0c0" stroke="#c0c0c0" stroke-width="2" points="205.2236,-263.158 196.3214,-257.4133 199.6981,-267.4556 205.2236,-263.158"/>
</g>
<!-- 6 -->
<g id="node7" class="node">
<title>6</title>
<path fill="none" stroke="#8fd856" stroke-width="2" stroke-dasharray="5,2" d="M161,-329C161,-329 99,-329 99,-329 93,-329 87,-323 87,-317 87,-317 87,-305 87,-305 87,-299 93,-293 99,-293 99,-293 161,-293 161,-293 167,-293 173,-299 173,-305 173,-305 173,-317 173,-317 173,-323 167,-329 161,-329"/>
<text text-anchor="middle" x="130" y="-308.5" font-family="sans" font-size="10.00" fill="#000000">tweak_header</text>
</g>
<!-- 6&#45;&gt;4 -->
<g id="edge7" class="edge">
<title>6&#45;&gt;4</title>
<path fill="none" stroke="#c0c0c0" stroke-width="2" d="M143.1218,-292.8314C149.0499,-284.6232 156.1729,-274.7606 162.6933,-265.7323"/>
<polygon fill="#c0c0c0" stroke="#c0c0c0" stroke-width="2" points="165.684,-267.5693 168.7015,-257.4133 160.0092,-263.4708 165.684,-267.5693"/>
</g>
<!-- 7 -->
<g id="node8" class="node">
<title>7</title>
<path fill="none" stroke="#567bd8" stroke-width="2" stroke-dasharray="5,2" d="M283,-401C283,-401 203,-401 203,-401 197,-401 191,-395 191,-389 191,-389 191,-377 191,-377 191,-371 197,-365 203,-365 203,-365 283,-365 283,-365 289,-365 295,-371 295,-377 295,-377 295,-389 295,-389 295,-395 289,-401 283,-401"/>
<text text-anchor="middle" x="243" y="-380.5" font-family="sans" font-size="10.00" fill="#000000">vcfanno_annotate</text>
</g>
<!-- 7&#45;&gt;5 -->
<g id="edge8" class="edge">
<title>7&#45;&gt;5</title>
<path fill="none" stroke="#c0c0c0" stroke-width="2" d="M241.7383,-364.8314C241.2035,-357.131 240.5677,-347.9743 239.9734,-339.4166"/>
<polygon fill="#c0c0c0" stroke="#c0c0c0" stroke-width="2" points="243.4632,-339.1467 239.2787,-329.4133 236.48,-339.6317 243.4632,-339.1467"/>
</g>
<!-- 8 -->
<g id="node9" class="node">
<title>8</title>
<path fill="none" stroke="#567bd8" stroke-width="2" stroke-dasharray="5,2" d="M161,-401C161,-401 81,-401 81,-401 75,-401 69,-395 69,-389 69,-389 69,-377 69,-377 69,-371 75,-365 81,-365 81,-365 161,-365 161,-365 167,-365 173,-371 173,-377 173,-377 173,-389 173,-389 173,-395 167,-401 161,-401"/>
<text text-anchor="middle" x="121" y="-380.5" font-family="sans" font-size="10.00" fill="#000000">vcfanno_annotate</text>
</g>
<!-- 8&#45;&gt;6 -->
<g id="edge9" class="edge">
<title>8&#45;&gt;6</title>
<path fill="none" stroke="#c0c0c0" stroke-width="2" d="M123.2711,-364.8314C124.2336,-357.131 125.3782,-347.9743 126.4479,-339.4166"/>
<polygon fill="#c0c0c0" stroke="#c0c0c0" stroke-width="2" points="129.9309,-339.7702 127.6983,-329.4133 122.9849,-338.9019 129.9309,-339.7702"/>
</g>
<!-- 9 -->
<g id="node10" class="node">
<title>9</title>
<path fill="none" stroke="#d8cb56" stroke-width="2" stroke-dasharray="5,2" d="M251.5,-473C251.5,-473 138.5,-473 138.5,-473 132.5,-473 126.5,-467 126.5,-461 126.5,-461 126.5,-449 126.5,-449 126.5,-443 132.5,-437 138.5,-437 138.5,-437 251.5,-437 251.5,-437 257.5,-437 263.5,-443 263.5,-449 263.5,-449 263.5,-461 263.5,-461 263.5,-467 257.5,-473 251.5,-473"/>
<text text-anchor="middle" x="195" y="-452.5" font-family="sans" font-size="10.00" fill="#000000">merge_annovar_intervar</text>
</g>
<!-- 9&#45;&gt;7 -->
<g id="edge10" class="edge">
<title>9&#45;&gt;7</title>
<path fill="none" stroke="#c0c0c0" stroke-width="2" d="M207.1124,-436.8314C212.5281,-428.7079 219.0242,-418.9637 224.9921,-410.0118"/>
<polygon fill="#c0c0c0" stroke="#c0c0c0" stroke-width="2" points="228.0896,-411.6753 230.7245,-401.4133 222.2653,-407.7923 228.0896,-411.6753"/>
</g>
<!-- 9&#45;&gt;8 -->
<g id="edge12" class="edge">
<title>9&#45;&gt;8</title>
<path fill="none" stroke="#c0c0c0" stroke-width="2" d="M176.3267,-436.8314C167.4751,-428.219 156.7514,-417.7851 147.1105,-408.4048"/>
<polygon fill="#c0c0c0" stroke="#c0c0c0" stroke-width="2" points="149.2754,-405.6279 139.6674,-401.1628 144.3939,-410.645 149.2754,-405.6279"/>
</g>
<!-- 10 -->
<g id="node11" class="node">
<title>10</title>
<path fill="none" stroke="#68d856" stroke-width="2" stroke-dasharray="5,2" d="M322,-545C322,-545 262,-545 262,-545 256,-545 250,-539 250,-533 250,-533 250,-521 250,-521 250,-515 256,-509 262,-509 262,-509 322,-509 322,-509 328,-509 334,-515 334,-521 334,-521 334,-533 334,-533 334,-539 328,-545 322,-545"/>
<text text-anchor="middle" x="292" y="-524.5" font-family="sans" font-size="10.00" fill="#000000">VEP_annotate</text>
</g>
<!-- 10&#45;&gt;7 -->
<g id="edge11" class="edge">
<title>10&#45;&gt;7</title>
<path fill="none" stroke="#c0c0c0" stroke-width="2" d="M289.8102,-508.9668C287.1938,-490.4723 281.9989,-461.0845 273,-437 269.5818,-427.8516 264.7995,-418.3789 260.056,-409.9702"/>
<polygon fill="#c0c0c0" stroke="#c0c0c0" stroke-width="2" points="263.0671,-408.186 254.9904,-401.3291 257.0283,-411.7261 263.0671,-408.186"/>
</g>
<!-- 11 -->
<g id="node12" class="node">
<title>11</title>
<path fill="none" stroke="#68d856" stroke-width="2" stroke-dasharray="5,2" d="M96,-473C96,-473 36,-473 36,-473 30,-473 24,-467 24,-461 24,-461 24,-449 24,-449 24,-443 30,-437 36,-437 36,-437 96,-437 96,-437 102,-437 108,-443 108,-449 108,-449 108,-461 108,-461 108,-467 102,-473 96,-473"/>
<text text-anchor="middle" x="66" y="-452.5" font-family="sans" font-size="10.00" fill="#000000">VEP_annotate</text>
</g>
<!-- 11&#45;&gt;8 -->
<g id="edge13" class="edge">
<title>11&#45;&gt;8</title>
<path fill="none" stroke="#c0c0c0" stroke-width="2" d="M79.8788,-436.8314C86.2136,-428.5386 93.8384,-418.557 100.7926,-409.4533"/>
<polygon fill="#c0c0c0" stroke="#c0c0c0" stroke-width="2" points="103.6452,-411.4847 106.9343,-401.4133 98.0825,-407.2353 103.6452,-411.4847"/>
</g>
<!-- 12 -->
<g id="node13" class="node">
<title>12</title>
<path fill="none" stroke="#56d892" stroke-width="2" stroke-dasharray="5,2" d="M214.5,-545C214.5,-545 183.5,-545 183.5,-545 177.5,-545 171.5,-539 171.5,-533 171.5,-533 171.5,-521 171.5,-521 171.5,-515 177.5,-509 183.5,-509 183.5,-509 214.5,-509 214.5,-509 220.5,-509 226.5,-515 226.5,-521 226.5,-521 226.5,-533 226.5,-533 226.5,-539 220.5,-545 214.5,-545"/>
<text text-anchor="middle" x="199" y="-524.5" font-family="sans" font-size="10.00" fill="#000000">intervar</text>
</g>
<!-- 12&#45;&gt;9 -->
<g id="edge14" class="edge">
<title>12&#45;&gt;9</title>
<path fill="none" stroke="#c0c0c0" stroke-width="2" d="M197.9906,-508.8314C197.5628,-501.131 197.0541,-491.9743 196.5787,-483.4166"/>
<polygon fill="#c0c0c0" stroke="#c0c0c0" stroke-width="2" points="200.0724,-483.2037 196.023,-473.4133 193.0831,-483.592 200.0724,-483.2037"/>
</g>
<!-- 13 -->
<g id="node14" class="node">
<title>13</title>
<path fill="none" stroke="#56d892" stroke-width="2" stroke-dasharray="5,2" d="M141.5,-545C141.5,-545 110.5,-545 110.5,-545 104.5,-545 98.5,-539 98.5,-533 98.5,-533 98.5,-521 98.5,-521 98.5,-515 104.5,-509 110.5,-509 110.5,-509 141.5,-509 141.5,-509 147.5,-509 153.5,-515 153.5,-521 153.5,-521 153.5,-533 153.5,-533 153.5,-539 147.5,-545 141.5,-545"/>
<text text-anchor="middle" x="126" y="-524.5" font-family="sans" font-size="10.00" fill="#000000">intervar</text>
</g>
<!-- 13&#45;&gt;9 -->
<g id="edge15" class="edge">
<title>13&#45;&gt;9</title>
<path fill="none" stroke="#c0c0c0" stroke-width="2" d="M143.4116,-508.8314C151.521,-500.3694 161.3156,-490.1489 170.182,-480.8971"/>
<polygon fill="#c0c0c0" stroke="#c0c0c0" stroke-width="2" points="172.9618,-483.0549 177.354,-473.4133 167.9079,-478.2115 172.9618,-483.0549"/>
</g>
<!-- 14 -->
<g id="node15" class="node">
<title>14</title>
<path fill="none" stroke="#b6d856" stroke-width="2" stroke-dasharray="5,2" d="M345.5,-689C345.5,-689 238.5,-689 238.5,-689 232.5,-689 226.5,-683 226.5,-677 226.5,-677 226.5,-665 226.5,-665 226.5,-659 232.5,-653 238.5,-653 238.5,-653 345.5,-653 345.5,-653 351.5,-653 357.5,-659 357.5,-665 357.5,-665 357.5,-677 357.5,-677 357.5,-683 351.5,-689 345.5,-689"/>
<text text-anchor="middle" x="292" y="-668.5" font-family="sans" font-size="10.00" fill="#000000">vt_bgzip_and_tabix_vcf</text>
</g>
<!-- 14&#45;&gt;10 -->
<g id="edge16" class="edge">
<title>14&#45;&gt;10</title>
<path fill="none" stroke="#c0c0c0" stroke-width="2" d="M292,-652.7623C292,-628.201 292,-584.2474 292,-555.3541"/>
<polygon fill="#c0c0c0" stroke="#c0c0c0" stroke-width="2" points="295.5001,-555.0896 292,-545.0896 288.5001,-555.0897 295.5001,-555.0896"/>
</g>
<!-- 16 -->
<g id="node17" class="node">
<title>16</title>
<path fill="none" stroke="#56d8b9" stroke-width="2" stroke-dasharray="5,2" d="M232,-617C232,-617 200,-617 200,-617 194,-617 188,-611 188,-605 188,-605 188,-593 188,-593 188,-587 194,-581 200,-581 200,-581 232,-581 232,-581 238,-581 244,-587 244,-593 244,-593 244,-605 244,-605 244,-611 238,-617 232,-617"/>
<text text-anchor="middle" x="216" y="-596.5" font-family="sans" font-size="10.00" fill="#000000">annovar</text>
</g>
<!-- 14&#45;&gt;16 -->
<g id="edge22" class="edge">
<title>14&#45;&gt;16</title>
<path fill="none" stroke="#c0c0c0" stroke-width="2" d="M272.822,-652.8314C263.6412,-644.1337 252.4994,-633.5783 242.5224,-624.1265"/>
<polygon fill="#c0c0c0" stroke="#c0c0c0" stroke-width="2" points="244.8385,-621.4995 235.1719,-617.1628 240.0243,-626.5811 244.8385,-621.4995"/>
</g>
<!-- 15 -->
<g id="node16" class="node">
<title>15</title>
<path fill="none" stroke="#b6d856" stroke-width="2" stroke-dasharray="5,2" d="M119.5,-689C119.5,-689 12.5,-689 12.5,-689 6.5,-689 .5,-683 .5,-677 .5,-677 .5,-665 .5,-665 .5,-659 6.5,-653 12.5,-653 12.5,-653 119.5,-653 119.5,-653 125.5,-653 131.5,-659 131.5,-665 131.5,-665 131.5,-677 131.5,-677 131.5,-683 125.5,-689 119.5,-689"/>
<text text-anchor="middle" x="66" y="-668.5" font-family="sans" font-size="10.00" fill="#000000">vt_bgzip_and_tabix_vcf</text>
</g>
<!-- 15&#45;&gt;11 -->
<g id="edge17" class="edge">
<title>15&#45;&gt;11</title>
<path fill="none" stroke="#c0c0c0" stroke-width="2" d="M66,-652.9555C66,-615.3938 66,-528.5541 66,-483.4103"/>
<polygon fill="#c0c0c0" stroke="#c0c0c0" stroke-width="2" points="69.5001,-483.145 66,-473.1451 62.5001,-483.1451 69.5001,-483.145"/>
</g>
<!-- 17 -->
<g id="node18" class="node">
<title>17</title>
<path fill="none" stroke="#56d8b9" stroke-width="2" stroke-dasharray="5,2" d="M142,-617C142,-617 110,-617 110,-617 104,-617 98,-611 98,-605 98,-605 98,-593 98,-593 98,-587 104,-581 110,-581 110,-581 142,-581 142,-581 148,-581 154,-587 154,-593 154,-593 154,-605 154,-605 154,-611 148,-617 142,-617"/>
<text text-anchor="middle" x="126" y="-596.5" font-family="sans" font-size="10.00" fill="#000000">annovar</text>
</g>
<!-- 15&#45;&gt;17 -->
<g id="edge23" class="edge">
<title>15&#45;&gt;17</title>
<path fill="none" stroke="#c0c0c0" stroke-width="2" d="M81.1405,-652.8314C88.1217,-644.454 96.5391,-634.3531 104.1876,-625.1749"/>
<polygon fill="#c0c0c0" stroke="#c0c0c0" stroke-width="2" points="106.9425,-627.3362 110.6556,-617.4133 101.5649,-622.8548 106.9425,-627.3362"/>
</g>
<!-- 16&#45;&gt;12 -->
<g id="edge18" class="edge">
<title>16&#45;&gt;12</title>
<path fill="none" stroke="#c0c0c0" stroke-width="2" d="M211.7102,-580.8314C209.892,-573.131 207.7301,-563.9743 205.7095,-555.4166"/>
<polygon fill="#c0c0c0" stroke="#c0c0c0" stroke-width="2" points="209.0519,-554.3414 203.3476,-545.4133 202.2392,-555.95 209.0519,-554.3414"/>
</g>
<!-- 17&#45;&gt;13 -->
<g id="edge19" class="edge">
<title>17&#45;&gt;13</title>
<path fill="none" stroke="#c0c0c0" stroke-width="2" d="M126,-580.8314C126,-573.131 126,-563.9743 126,-555.4166"/>
<polygon fill="#c0c0c0" stroke="#c0c0c0" stroke-width="2" points="129.5001,-555.4132 126,-545.4133 122.5001,-555.4133 129.5001,-555.4132"/>
</g>
<!-- 18 -->
<g id="node19" class="node">
<title>18</title>
<path fill="none" stroke="#d87d56" stroke-width="2" stroke-dasharray="5,2" d="M462.5,-766C462.5,-766 141.5,-766 141.5,-766 135.5,-766 129.5,-760 129.5,-754 129.5,-754 129.5,-737 129.5,-737 129.5,-731 135.5,-725 141.5,-725 141.5,-725 462.5,-725 462.5,-725 468.5,-725 474.5,-731 474.5,-737 474.5,-737 474.5,-754 474.5,-754 474.5,-760 468.5,-766 462.5,-766"/>
<text text-anchor="middle" x="302" y="-754" font-family="sans" font-size="10.00" fill="#000000">n_split_vcf</text>
<text text-anchor="middle" x="302" y="-743" font-family="sans" font-size="10.00" fill="#000000">region: 1,2,3,4,5,6,7,8,9,10,11,12,13,14,15,16,17,18,19,20,21,22,X,Y</text>
<text text-anchor="middle" x="302" y="-732" font-family="sans" font-size="10.00" fill="#000000">sample: VCFs.GATK</text>
</g>
<!-- 18&#45;&gt;14 -->
<g id="edge20" class="edge">
<title>18&#45;&gt;14</title>
<path fill="none" stroke="#c0c0c0" stroke-width="2" d="M299.2144,-724.7476C298.1462,-716.7892 296.909,-707.5718 295.764,-699.0418"/>
<polygon fill="#c0c0c0" stroke="#c0c0c0" stroke-width="2" points="299.23,-698.5541 294.4307,-689.1087 292.2922,-699.4854 299.23,-698.5541"/>
</g>
<!-- 19 -->
<g id="node20" class="node">
<title>19</title>
<path fill="none" stroke="#d87d56" stroke-width="2" stroke-dasharray="5,2" d="M100,-766C100,-766 12,-766 12,-766 6,-766 0,-760 0,-754 0,-754 0,-737 0,-737 0,-731 6,-725 12,-725 12,-725 100,-725 100,-725 106,-725 112,-731 112,-737 112,-737 112,-754 112,-754 112,-760 106,-766 100,-766"/>
<text text-anchor="middle" x="56" y="-754" font-family="sans" font-size="10.00" fill="#000000">n_split_vcf</text>
<text text-anchor="middle" x="56" y="-743" font-family="sans" font-size="10.00" fill="#000000">region: MT_contigs</text>
<text text-anchor="middle" x="56" y="-732" font-family="sans" font-size="10.00" fill="#000000">sample: VCFs.GATK</text>
</g>
<!-- 19&#45;&gt;15 -->
<g id="edge21" class="edge">
<title>19&#45;&gt;15</title>
<path fill="none" stroke="#c0c0c0" stroke-width="2" d="M58.7856,-724.7476C59.8538,-716.7892 61.091,-707.5718 62.236,-699.0418"/>
<polygon fill="#c0c0c0" stroke="#c0c0c0" stroke-width="2" points="65.7078,-699.4854 63.5693,-689.1087 58.77,-698.5541 65.7078,-699.4854"/>
</g>
</g>
</svg>
