<?xml version="1.0" encoding="UTF-8" standalone="no"?>
<!DOCTYPE svg PUBLIC "-//W3C//DTD SVG 1.1//EN"
 "http://www.w3.org/Graphics/SVG/1.1/DTD/svg11.dtd">
<!-- Generated by graphviz version 2.40.1 (20161225.0304)
 -->
<!-- Title: snakemake_dag Pages: 1 -->
<svg width="563pt" height="918pt"
 viewBox="0.00 0.00 562.50 918.00" xmlns="http://www.w3.org/2000/svg" xmlns:xlink="http://www.w3.org/1999/xlink">
<g id="graph0" class="graph" transform="scale(1 1) rotate(0) translate(4 914)">
<title>snakemake_dag</title>
<polygon fill="#ffffff" stroke="transparent" points="-4,4 -4,-914 558.5,-914 558.5,4 -4,4"/>
<!-- 0 -->
<g id="node1" class="node">
<title>0</title>
<path fill="none" stroke="#5692d8" stroke-width="2" d="M278,-36C278,-36 248,-36 248,-36 242,-36 236,-30 236,-24 236,-24 236,-12 236,-12 236,-6 242,0 248,0 248,0 278,0 278,0 284,0 290,-6 290,-12 290,-12 290,-24 290,-24 290,-30 284,-36 278,-36"/>
<text text-anchor="middle" x="263" y="-15.5" font-family="sans" font-size="10.00" fill="#000000">all</text>
</g>
<!-- 1 -->
<g id="node2" class="node">
<title>1</title>
<path fill="none" stroke="#5673d8" stroke-width="2" d="M447,-108C447,-108 387,-108 387,-108 381,-108 375,-102 375,-96 375,-96 375,-84 375,-84 375,-78 381,-72 387,-72 387,-72 447,-72 447,-72 453,-72 459,-78 459,-84 459,-84 459,-96 459,-96 459,-102 453,-108 447,-108"/>
<text text-anchor="middle" x="417" y="-87.5" font-family="sans" font-size="10.00" fill="#000000">move_reports</text>
</g>
<!-- 1&#45;&gt;0 -->
<g id="edge1" class="edge">
<title>1&#45;&gt;0</title>
<path fill="none" stroke="#c0c0c0" stroke-width="2" d="M378.1393,-71.8314C354.0186,-60.5541 323.2177,-46.1537 299.5432,-35.0851"/>
<polygon fill="#c0c0c0" stroke="#c0c0c0" stroke-width="2" points="300.7409,-31.7815 290.1997,-30.7168 297.7762,-38.1227 300.7409,-31.7815"/>
</g>
<!-- 2 -->
<g id="node3" class="node">
<title>2</title>
<path fill="none" stroke="#9fd856" stroke-width="2" d="M120,-108C120,-108 12,-108 12,-108 6,-108 0,-102 0,-96 0,-96 0,-84 0,-84 0,-78 6,-72 12,-72 12,-72 120,-72 120,-72 126,-72 132,-78 132,-84 132,-84 132,-96 132,-96 132,-102 126,-108 120,-108"/>
<text text-anchor="middle" x="66" y="-93" font-family="sans" font-size="10.00" fill="#000000">query_gemini_individual</text>
<text text-anchor="middle" x="66" y="-82" font-family="sans" font-size="10.00" fill="#000000">sampleid: Proband</text>
</g>
<!-- 2&#45;&gt;0 -->
<g id="edge2" class="edge">
<title>2&#45;&gt;0</title>
<path fill="none" stroke="#c0c0c0" stroke-width="2" d="M115.4571,-71.9243C149.9101,-59.3324 195.1104,-42.8124 226.3582,-31.3919"/>
<polygon fill="#c0c0c0" stroke="#c0c0c0" stroke-width="2" points="227.7912,-34.5947 235.982,-27.8746 225.3882,-28.0201 227.7912,-34.5947"/>
</g>
<!-- 3 -->
<g id="node4" class="node">
<title>3</title>
<path fill="none" stroke="#9fd856" stroke-width="2" d="M270,-108C270,-108 162,-108 162,-108 156,-108 150,-102 150,-96 150,-96 150,-84 150,-84 150,-78 156,-72 162,-72 162,-72 270,-72 270,-72 276,-72 282,-78 282,-84 282,-84 282,-96 282,-96 282,-102 276,-108 270,-108"/>
<text text-anchor="middle" x="216" y="-93" font-family="sans" font-size="10.00" fill="#000000">query_gemini_individual</text>
<text text-anchor="middle" x="216" y="-82" font-family="sans" font-size="10.00" fill="#000000">sampleid: Father</text>
</g>
<!-- 3&#45;&gt;0 -->
<g id="edge3" class="edge">
<title>3&#45;&gt;0</title>
<path fill="none" stroke="#c0c0c0" stroke-width="2" d="M227.8601,-71.8314C233.1629,-63.7079 239.5237,-53.9637 245.3673,-45.0118"/>
<polygon fill="#c0c0c0" stroke="#c0c0c0" stroke-width="2" points="248.4448,-46.7003 250.9802,-36.4133 242.5831,-42.8739 248.4448,-46.7003"/>
</g>
<!-- 4 -->
<g id="node5" class="node">
<title>4</title>
<path fill="none" stroke="#9fd856" stroke-width="2" d="M345,-182.5C345,-182.5 237,-182.5 237,-182.5 231,-182.5 225,-176.5 225,-170.5 225,-170.5 225,-158.5 225,-158.5 225,-152.5 231,-146.5 237,-146.5 237,-146.5 345,-146.5 345,-146.5 351,-146.5 357,-152.5 357,-158.5 357,-158.5 357,-170.5 357,-170.5 357,-176.5 351,-182.5 345,-182.5"/>
<text text-anchor="middle" x="291" y="-167.5" font-family="sans" font-size="10.00" fill="#000000">query_gemini_individual</text>
<text text-anchor="middle" x="291" y="-156.5" font-family="sans" font-size="10.00" fill="#000000">sampleid: Mother</text>
</g>
<!-- 4&#45;&gt;0 -->
<g id="edge4" class="edge">
<title>4&#45;&gt;0</title>
<path fill="none" stroke="#c0c0c0" stroke-width="2" d="M293.4929,-146.4676C295.5261,-127.6031 297.1632,-97.2751 291,-72 288.7461,-62.7566 284.6107,-53.3312 280.1973,-44.9966"/>
<polygon fill="#c0c0c0" stroke="#c0c0c0" stroke-width="2" points="283.1476,-43.1033 275.1817,-36.118 277.0529,-46.5463 283.1476,-43.1033"/>
</g>
<!-- 5 -->
<g id="node6" class="node">
<title>5</title>
<path fill="none" stroke="#56d8c1" stroke-width="2" d="M485,-185C485,-185 387,-185 387,-185 381,-185 375,-179 375,-173 375,-173 375,-156 375,-156 375,-150 381,-144 387,-144 387,-144 485,-144 485,-144 491,-144 497,-150 497,-156 497,-156 497,-173 497,-173 497,-179 491,-185 485,-185"/>
<text text-anchor="middle" x="436" y="-173" font-family="sans" font-size="10.00" fill="#000000">query_gemini</text>
<text text-anchor="middle" x="436" y="-162" font-family="sans" font-size="10.00" fill="#000000">family_name: outside</text>
<text text-anchor="middle" x="436" y="-151" font-family="sans" font-size="10.00" fill="#000000">gemini_lenient: Yes</text>
</g>
<!-- 5&#45;&gt;1 -->
<g id="edge5" class="edge">
<title>5&#45;&gt;1</title>
<path fill="none" stroke="#c0c0c0" stroke-width="2" d="M430.7074,-143.7476C428.6778,-135.7892 426.327,-126.5718 424.1516,-118.0418"/>
<polygon fill="#c0c0c0" stroke="#c0c0c0" stroke-width="2" points="427.4811,-116.9336 421.6183,-108.1087 420.6982,-118.6635 427.4811,-116.9336"/>
</g>
<!-- 6 -->
<g id="node7" class="node">
<title>6</title>
<path fill="none" stroke="#88d856" stroke-width="2" d="M327.5,-257C327.5,-257 254.5,-257 254.5,-257 248.5,-257 242.5,-251 242.5,-245 242.5,-245 242.5,-233 242.5,-233 242.5,-227 248.5,-221 254.5,-221 254.5,-221 327.5,-221 327.5,-221 333.5,-221 339.5,-227 339.5,-233 339.5,-233 339.5,-245 339.5,-245 339.5,-251 333.5,-257 327.5,-257"/>
<text text-anchor="middle" x="291" y="-242" font-family="sans" font-size="10.00" fill="#000000">make_gemini_db</text>
<text text-anchor="middle" x="291" y="-231" font-family="sans" font-size="10.00" fill="#000000">ped: test_trio</text>
</g>
<!-- 6&#45;&gt;2 -->
<g id="edge6" class="edge">
<title>6&#45;&gt;2</title>
<path fill="none" stroke="#c0c0c0" stroke-width="2" d="M260.9828,-220.852C244.1145,-210.5332 222.7459,-197.2603 204,-185 167.9312,-161.4102 127.3847,-133.3023 99.627,-113.8091"/>
<polygon fill="#c0c0c0" stroke="#c0c0c0" stroke-width="2" points="101.6349,-110.9423 91.4423,-108.0506 97.6069,-116.6673 101.6349,-110.9423"/>
</g>
<!-- 6&#45;&gt;3 -->
<g id="edge7" class="edge">
<title>6&#45;&gt;3</title>
<path fill="none" stroke="#c0c0c0" stroke-width="2" d="M252.3086,-220.9437C238.2133,-212.2204 223.8269,-200.2799 216,-185 205.4834,-164.469 206.4581,-138.0155 209.5068,-118.2391"/>
<polygon fill="#c0c0c0" stroke="#c0c0c0" stroke-width="2" points="212.9695,-118.7584 211.2969,-108.2964 206.0803,-117.518 212.9695,-118.7584"/>
</g>
<!-- 6&#45;&gt;4 -->
<g id="edge8" class="edge">
<title>6&#45;&gt;4</title>
<path fill="none" stroke="#c0c0c0" stroke-width="2" d="M291,-220.9656C291,-212.5178 291,-202.2542 291,-192.8064"/>
<polygon fill="#c0c0c0" stroke="#c0c0c0" stroke-width="2" points="294.5001,-192.6265 291,-182.6265 287.5001,-192.6265 294.5001,-192.6265"/>
</g>
<!-- 6&#45;&gt;5 -->
<g id="edge9" class="edge">
<title>6&#45;&gt;5</title>
<path fill="none" stroke="#c0c0c0" stroke-width="2" d="M326.1005,-220.9656C344.3439,-211.5923 366.9382,-199.9835 386.8868,-189.734"/>
<polygon fill="#c0c0c0" stroke="#c0c0c0" stroke-width="2" points="388.5459,-192.8166 395.8411,-185.1334 385.3469,-186.5903 388.5459,-192.8166"/>
</g>
<!-- 7 -->
<g id="node8" class="node">
<title>7</title>
<path fill="none" stroke="#d85656" stroke-width="2" d="M434.5,-257C434.5,-257 391.5,-257 391.5,-257 385.5,-257 379.5,-251 379.5,-245 379.5,-245 379.5,-233 379.5,-233 379.5,-227 385.5,-221 391.5,-221 391.5,-221 434.5,-221 434.5,-221 440.5,-221 446.5,-227 446.5,-233 446.5,-233 446.5,-245 446.5,-245 446.5,-251 440.5,-257 434.5,-257"/>
<text text-anchor="middle" x="413" y="-236.5" font-family="sans" font-size="10.00" fill="#000000">peddy_QC</text>
</g>
<!-- 7&#45;&gt;5 -->
<g id="edge10" class="edge">
<title>7&#45;&gt;5</title>
<path fill="none" stroke="#c0c0c0" stroke-width="2" d="M418.5677,-220.9656C420.9825,-213.1436 423.878,-203.7648 426.6091,-194.9183"/>
<polygon fill="#c0c0c0" stroke="#c0c0c0" stroke-width="2" points="429.9828,-195.8554 429.5884,-185.2679 423.2942,-193.7904 429.9828,-195.8554"/>
</g>
<!-- 8 -->
<g id="node9" class="node">
<title>8</title>
<path fill="none" stroke="#68d856" stroke-width="2" d="M363,-329C363,-329 319,-329 319,-329 313,-329 307,-323 307,-317 307,-317 307,-305 307,-305 307,-299 313,-293 319,-293 319,-293 363,-293 363,-293 369,-293 375,-299 375,-305 375,-305 375,-317 375,-317 375,-323 369,-329 363,-329"/>
<text text-anchor="middle" x="341" y="-308.5" font-family="sans" font-size="10.00" fill="#000000">merge_vcf</text>
</g>
<!-- 8&#45;&gt;6 -->
<g id="edge11" class="edge">
<title>8&#45;&gt;6</title>
<path fill="none" stroke="#c0c0c0" stroke-width="2" d="M328.3829,-292.8314C322.6828,-284.6232 315.8337,-274.7606 309.5641,-265.7323"/>
<polygon fill="#c0c0c0" stroke="#c0c0c0" stroke-width="2" points="312.3658,-263.6306 303.787,-257.4133 306.6162,-267.6234 312.3658,-263.6306"/>
</g>
<!-- 8&#45;&gt;7 -->
<g id="edge12" class="edge">
<title>8&#45;&gt;7</title>
<path fill="none" stroke="#c0c0c0" stroke-width="2" d="M359.1686,-292.8314C367.7152,-284.2848 378.0557,-273.9443 387.3802,-264.6198"/>
<polygon fill="#c0c0c0" stroke="#c0c0c0" stroke-width="2" points="389.9905,-266.9592 394.5867,-257.4133 385.0408,-262.0095 389.9905,-266.9592"/>
</g>
<!-- 9 -->
<g id="node10" class="node">
<title>9</title>
<path fill="none" stroke="#d8b456" stroke-width="2" d="M372,-401C372,-401 310,-401 310,-401 304,-401 298,-395 298,-389 298,-389 298,-377 298,-377 298,-371 304,-365 310,-365 310,-365 372,-365 372,-365 378,-365 384,-371 384,-377 384,-377 384,-389 384,-389 384,-395 378,-401 372,-401"/>
<text text-anchor="middle" x="341" y="-380.5" font-family="sans" font-size="10.00" fill="#000000">tweak_header</text>
</g>
<!-- 9&#45;&gt;8 -->
<g id="edge13" class="edge">
<title>9&#45;&gt;8</title>
<path fill="none" stroke="#c0c0c0" stroke-width="2" d="M341,-364.8314C341,-357.131 341,-347.9743 341,-339.4166"/>
<polygon fill="#c0c0c0" stroke="#c0c0c0" stroke-width="2" points="344.5001,-339.4132 341,-329.4133 337.5001,-339.4133 344.5001,-339.4132"/>
</g>
<!-- 10 -->
<g id="node11" class="node">
<title>10</title>
<path fill="none" stroke="#56d882" stroke-width="2" d="M382.5,-473C382.5,-473 299.5,-473 299.5,-473 293.5,-473 287.5,-467 287.5,-461 287.5,-461 287.5,-449 287.5,-449 287.5,-443 293.5,-437 299.5,-437 299.5,-437 382.5,-437 382.5,-437 388.5,-437 394.5,-443 394.5,-449 394.5,-449 394.5,-461 394.5,-461 394.5,-467 388.5,-473 382.5,-473"/>
<text text-anchor="middle" x="341" y="-452.5" font-family="sans" font-size="10.00" fill="#000000">vcfanno_annotate</text>
</g>
<!-- 10&#45;&gt;9 -->
<g id="edge14" class="edge">
<title>10&#45;&gt;9</title>
<path fill="none" stroke="#c0c0c0" stroke-width="2" d="M341,-436.8314C341,-429.131 341,-419.9743 341,-411.4166"/>
<polygon fill="#c0c0c0" stroke="#c0c0c0" stroke-width="2" points="344.5001,-411.4132 341,-401.4133 337.5001,-411.4133 344.5001,-411.4132"/>
</g>
<!-- 11 -->
<g id="node12" class="node">
<title>11</title>
<path fill="none" stroke="#56d8a2" stroke-width="2" d="M446.5,-545C446.5,-545 333.5,-545 333.5,-545 327.5,-545 321.5,-539 321.5,-533 321.5,-533 321.5,-521 321.5,-521 321.5,-515 327.5,-509 333.5,-509 333.5,-509 446.5,-509 446.5,-509 452.5,-509 458.5,-515 458.5,-521 458.5,-521 458.5,-533 458.5,-533 458.5,-539 452.5,-545 446.5,-545"/>
<text text-anchor="middle" x="390" y="-524.5" font-family="sans" font-size="10.00" fill="#000000">merge_annovar_intervar</text>
</g>
<!-- 11&#45;&gt;10 -->
<g id="edge15" class="edge">
<title>11&#45;&gt;10</title>
<path fill="none" stroke="#c0c0c0" stroke-width="2" d="M377.6352,-508.8314C372.0491,-500.6232 365.337,-490.7606 359.1928,-481.7323"/>
<polygon fill="#c0c0c0" stroke="#c0c0c0" stroke-width="2" points="362.051,-479.7112 353.5313,-473.4133 356.264,-483.6496 362.051,-479.7112"/>
</g>
<!-- 12 -->
<g id="node13" class="node">
<title>12</title>
<path fill="none" stroke="#d87556" stroke-width="2" d="M324,-689C324,-689 262,-689 262,-689 256,-689 250,-683 250,-677 250,-677 250,-665 250,-665 250,-659 256,-653 262,-653 262,-653 324,-653 324,-653 330,-653 336,-659 336,-665 336,-665 336,-677 336,-677 336,-683 330,-689 324,-689"/>
<text text-anchor="middle" x="293" y="-668.5" font-family="sans" font-size="10.00" fill="#000000">VEP_annotate</text>
</g>
<!-- 12&#45;&gt;10 -->
<g id="edge16" class="edge">
<title>12&#45;&gt;10</title>
<path fill="none" stroke="#c0c0c0" stroke-width="2" d="M292.9395,-652.5565C293.3259,-621.9955 296.1936,-559.2434 312,-509 314.8771,-499.8547 319.3209,-490.4582 323.8723,-482.1201"/>
<polygon fill="#c0c0c0" stroke="#c0c0c0" stroke-width="2" points="327.0351,-483.6406 328.979,-473.2256 320.9645,-480.1552 327.0351,-483.6406"/>
</g>
<!-- 13 -->
<g id="node14" class="node">
<title>13</title>
<path fill="none" stroke="#d8d356" stroke-width="2" d="M439,-617C439,-617 341,-617 341,-617 335,-617 329,-611 329,-605 329,-605 329,-593 329,-593 329,-587 335,-581 341,-581 341,-581 439,-581 439,-581 445,-581 451,-587 451,-593 451,-593 451,-605 451,-605 451,-611 445,-617 439,-617"/>
<text text-anchor="middle" x="390" y="-596.5" font-family="sans" font-size="10.00" fill="#000000">spliceai_intervar_edit</text>
</g>
<!-- 13&#45;&gt;11 -->
<g id="edge17" class="edge">
<title>13&#45;&gt;11</title>
<path fill="none" stroke="#c0c0c0" stroke-width="2" d="M390,-580.8314C390,-573.131 390,-563.9743 390,-555.4166"/>
<polygon fill="#c0c0c0" stroke="#c0c0c0" stroke-width="2" points="393.5001,-555.4132 390,-545.4133 386.5001,-555.4133 393.5001,-555.4132"/>
</g>
<!-- 14 -->
<g id="node15" class="node">
<title>14</title>
<path fill="none" stroke="#56d863" stroke-width="2" d="M427,-833C427,-833 317,-833 317,-833 311,-833 305,-827 305,-821 305,-821 305,-809 305,-809 305,-803 311,-797 317,-797 317,-797 427,-797 427,-797 433,-797 439,-803 439,-809 439,-809 439,-821 439,-821 439,-827 433,-833 427,-833"/>
<text text-anchor="middle" x="372" y="-812.5" font-family="sans" font-size="10.00" fill="#000000">vt_bgzip_and_tabix_vcf</text>
</g>
<!-- 14&#45;&gt;12 -->
<g id="edge18" class="edge">
<title>14&#45;&gt;12</title>
<path fill="none" stroke="#c0c0c0" stroke-width="2" d="M345.0791,-796.85C333.2007,-787.4909 320.1201,-775.0832 312,-761 301.1312,-742.1494 296.4497,-717.8687 294.4482,-699.2787"/>
<polygon fill="#c0c0c0" stroke="#c0c0c0" stroke-width="2" points="297.9136,-698.7306 293.5529,-689.0749 290.9404,-699.3425 297.9136,-698.7306"/>
</g>
<!-- 16 -->
<g id="node17" class="node">
<title>16</title>
<path fill="none" stroke="#bed856" stroke-width="2" d="M410.5,-761C410.5,-761 333.5,-761 333.5,-761 327.5,-761 321.5,-755 321.5,-749 321.5,-749 321.5,-737 321.5,-737 321.5,-731 327.5,-725 333.5,-725 333.5,-725 410.5,-725 410.5,-725 416.5,-725 422.5,-731 422.5,-737 422.5,-737 422.5,-749 422.5,-749 422.5,-755 416.5,-761 410.5,-761"/>
<text text-anchor="middle" x="372" y="-740.5" font-family="sans" font-size="10.00" fill="#000000">annovar_intervar</text>
</g>
<!-- 14&#45;&gt;16 -->
<g id="edge23" class="edge">
<title>14&#45;&gt;16</title>
<path fill="none" stroke="#c0c0c0" stroke-width="2" d="M372,-796.8314C372,-789.131 372,-779.9743 372,-771.4166"/>
<polygon fill="#c0c0c0" stroke="#c0c0c0" stroke-width="2" points="375.5001,-771.4132 372,-761.4133 368.5001,-771.4133 375.5001,-771.4132"/>
</g>
<!-- 18 -->
<g id="node19" class="node">
<title>18</title>
<path fill="none" stroke="#56d0d8" stroke-width="2" d="M483,-761C483,-761 453,-761 453,-761 447,-761 441,-755 441,-749 441,-749 441,-737 441,-737 441,-731 447,-725 453,-725 453,-725 483,-725 483,-725 489,-725 495,-731 495,-737 495,-737 495,-749 495,-749 495,-755 489,-761 483,-761"/>
<text text-anchor="middle" x="468" y="-740.5" font-family="sans" font-size="10.00" fill="#000000">spliceai</text>
</g>
<!-- 14&#45;&gt;18 -->
<g id="edge24" class="edge">
<title>14&#45;&gt;18</title>
<path fill="none" stroke="#c0c0c0" stroke-width="2" d="M396.2249,-796.8314C408.1628,-787.8779 422.7256,-776.9558 435.606,-767.2955"/>
<polygon fill="#c0c0c0" stroke="#c0c0c0" stroke-width="2" points="437.8829,-769.9629 443.7829,-761.1628 433.6829,-764.3629 437.8829,-769.9629"/>
</g>
<!-- 15 -->
<g id="node16" class="node">
<title>15</title>
<path fill="none" stroke="#56b1d8" stroke-width="2" d="M486.5,-689C486.5,-689 433.5,-689 433.5,-689 427.5,-689 421.5,-683 421.5,-677 421.5,-677 421.5,-665 421.5,-665 421.5,-659 427.5,-653 433.5,-653 433.5,-653 486.5,-653 486.5,-653 492.5,-653 498.5,-659 498.5,-665 498.5,-665 498.5,-677 498.5,-677 498.5,-683 492.5,-689 486.5,-689"/>
<text text-anchor="middle" x="460" y="-668.5" font-family="sans" font-size="10.00" fill="#000000">spliceai_edit</text>
</g>
<!-- 15&#45;&gt;13 -->
<g id="edge19" class="edge">
<title>15&#45;&gt;13</title>
<path fill="none" stroke="#c0c0c0" stroke-width="2" d="M442.336,-652.8314C434.0268,-644.2848 423.9736,-633.9443 414.9082,-624.6198"/>
<polygon fill="#c0c0c0" stroke="#c0c0c0" stroke-width="2" points="417.3821,-622.1435 407.9018,-617.4133 412.3631,-627.023 417.3821,-622.1435"/>
</g>
<!-- 16&#45;&gt;13 -->
<g id="edge20" class="edge">
<title>16&#45;&gt;13</title>
<path fill="none" stroke="#c0c0c0" stroke-width="2" d="M374.2797,-724.7623C377.3499,-700.201 382.8441,-656.2474 386.4557,-627.3541"/>
<polygon fill="#c0c0c0" stroke="#c0c0c0" stroke-width="2" points="389.9713,-627.4465 387.7388,-617.0896 383.0254,-626.5782 389.9713,-627.4465"/>
</g>
<!-- 17 -->
<g id="node18" class="node">
<title>17</title>
<path fill="none" stroke="#d89556" stroke-width="2" d="M542.5,-910C542.5,-910 201.5,-910 201.5,-910 195.5,-910 189.5,-904 189.5,-898 189.5,-898 189.5,-881 189.5,-881 189.5,-875 195.5,-869 201.5,-869 201.5,-869 542.5,-869 542.5,-869 548.5,-869 554.5,-875 554.5,-881 554.5,-881 554.5,-898 554.5,-898 554.5,-904 548.5,-910 542.5,-910"/>
<text text-anchor="middle" x="372" y="-898" font-family="sans" font-size="10.00" fill="#000000">n_split_vcf</text>
<text text-anchor="middle" x="372" y="-887" font-family="sans" font-size="10.00" fill="#000000">region: 1,2,3,4,5,6,7,8,9,10,11,12,13,14,15,16,17,18,19,20,21,22,X,Y</text>
<text text-anchor="middle" x="372" y="-876" font-family="sans" font-size="10.00" fill="#000000">sample: test_trio</text>
</g>
<!-- 17&#45;&gt;14 -->
<g id="edge21" class="edge">
<title>17&#45;&gt;14</title>
<path fill="none" stroke="#c0c0c0" stroke-width="2" d="M372,-868.7476C372,-860.8767 372,-851.7743 372,-843.3232"/>
<polygon fill="#c0c0c0" stroke="#c0c0c0" stroke-width="2" points="375.5001,-843.1086 372,-833.1087 368.5001,-843.1087 375.5001,-843.1086"/>
</g>
<!-- 18&#45;&gt;15 -->
<g id="edge22" class="edge">
<title>18&#45;&gt;15</title>
<path fill="none" stroke="#c0c0c0" stroke-width="2" d="M465.9813,-724.8314C465.1257,-717.131 464.1083,-707.9743 463.1574,-699.4166"/>
<polygon fill="#c0c0c0" stroke="#c0c0c0" stroke-width="2" points="466.6289,-698.9656 462.0459,-689.4133 459.6717,-699.7386 466.6289,-698.9656"/>
</g>
</g>
</svg>
