<?xml version="1.0" encoding="UTF-8" standalone="no"?>
<!DOCTYPE svg PUBLIC "-//W3C//DTD SVG 1.1//EN"
 "http://www.w3.org/Graphics/SVG/1.1/DTD/svg11.dtd">
<!-- Generated by graphviz version 2.40.1 (20161225.0304)
 -->
<!-- Title: snakemake_dag Pages: 1 -->
<svg width="503pt" height="625pt"
 viewBox="0.00 0.00 503.00 625.00" xmlns="http://www.w3.org/2000/svg" xmlns:xlink="http://www.w3.org/1999/xlink">
<g id="graph0" class="graph" transform="scale(1 1) rotate(0) translate(4 621)">
<title>snakemake_dag</title>
<polygon fill="#ffffff" stroke="transparent" points="-4,4 -4,-621 499,-621 499,4 -4,4"/>
<!-- 0 -->
<g id="node1" class="node">
<title>0</title>
<path fill="none" stroke="#59d856" stroke-width="2" stroke-dasharray="5,2" d="M248.5,-252C248.5,-252 204.5,-252 204.5,-252 198.5,-252 192.5,-246 192.5,-240 192.5,-240 192.5,-228 192.5,-228 192.5,-222 198.5,-216 204.5,-216 204.5,-216 248.5,-216 248.5,-216 254.5,-216 260.5,-222 260.5,-228 260.5,-228 260.5,-240 260.5,-240 260.5,-246 254.5,-252 248.5,-252"/>
<text text-anchor="middle" x="226.5" y="-231.5" font-family="sans" font-size="10.00" fill="#000000">merge_vcf</text>
</g>
<!-- 5 -->
<g id="node6" class="node">
<title>5</title>
<path fill="none" stroke="#d88d56" stroke-width="2" stroke-dasharray="5,2" d="M232,-180C232,-180 83,-180 83,-180 77,-180 71,-174 71,-168 71,-168 71,-156 71,-156 71,-150 77,-144 83,-144 83,-144 232,-144 232,-144 238,-144 244,-150 244,-156 244,-156 244,-168 244,-168 244,-174 238,-180 232,-180"/>
<text text-anchor="middle" x="157.5" y="-165" font-family="sans" font-size="10.00" fill="#000000">make_gemini_db</text>
<text text-anchor="middle" x="157.5" y="-154" font-family="sans" font-size="10.00" fill="#000000">ped: columbia_master_pedigree</text>
</g>
<!-- 0&#45;&gt;5 -->
<g id="edge7" class="edge">
<title>0&#45;&gt;5</title>
<path fill="none" stroke="#c0c0c0" stroke-width="2" d="M209.0884,-215.8314C200.979,-207.3694 191.1844,-197.1489 182.318,-187.8971"/>
<polygon fill="#c0c0c0" stroke="#c0c0c0" stroke-width="2" points="184.5921,-185.2115 175.146,-180.4133 179.5382,-190.0549 184.5921,-185.2115"/>
</g>
<!-- 9 -->
<g id="node10" class="node">
<title>9</title>
<path fill="none" stroke="#56c1d8" stroke-width="2" stroke-dasharray="5,2" d="M317,-180C317,-180 274,-180 274,-180 268,-180 262,-174 262,-168 262,-168 262,-156 262,-156 262,-150 268,-144 274,-144 274,-144 317,-144 317,-144 323,-144 329,-150 329,-156 329,-156 329,-168 329,-168 329,-174 323,-180 317,-180"/>
<text text-anchor="middle" x="295.5" y="-159.5" font-family="sans" font-size="10.00" fill="#000000">peddy_QC</text>
</g>
<!-- 0&#45;&gt;9 -->
<g id="edge12" class="edge">
<title>0&#45;&gt;9</title>
<path fill="none" stroke="#c0c0c0" stroke-width="2" d="M243.9116,-215.8314C252.021,-207.3694 261.8156,-197.1489 270.682,-187.8971"/>
<polygon fill="#c0c0c0" stroke="#c0c0c0" stroke-width="2" points="273.4618,-190.0549 277.854,-180.4133 268.4079,-185.2115 273.4618,-190.0549"/>
</g>
<!-- 1 -->
<g id="node2" class="node">
<title>1</title>
<path fill="none" stroke="#d8bc56" stroke-width="2" stroke-dasharray="5,2" d="M268,-396C268,-396 185,-396 185,-396 179,-396 173,-390 173,-384 173,-384 173,-372 173,-372 173,-366 179,-360 185,-360 185,-360 268,-360 268,-360 274,-360 280,-366 280,-372 280,-372 280,-384 280,-384 280,-390 274,-396 268,-396"/>
<text text-anchor="middle" x="226.5" y="-375.5" font-family="sans" font-size="10.00" fill="#000000">vcfanno_annotate</text>
</g>
<!-- 15 -->
<g id="node16" class="node">
<title>15</title>
<path fill="none" stroke="#56d8c1" stroke-width="2" stroke-dasharray="5,2" d="M257.5,-324C257.5,-324 195.5,-324 195.5,-324 189.5,-324 183.5,-318 183.5,-312 183.5,-312 183.5,-300 183.5,-300 183.5,-294 189.5,-288 195.5,-288 195.5,-288 257.5,-288 257.5,-288 263.5,-288 269.5,-294 269.5,-300 269.5,-300 269.5,-312 269.5,-312 269.5,-318 263.5,-324 257.5,-324"/>
<text text-anchor="middle" x="226.5" y="-303.5" font-family="sans" font-size="10.00" fill="#000000">tweak_header</text>
</g>
<!-- 1&#45;&gt;15 -->
<g id="edge19" class="edge">
<title>1&#45;&gt;15</title>
<path fill="none" stroke="#c0c0c0" stroke-width="2" d="M226.5,-359.8314C226.5,-352.131 226.5,-342.9743 226.5,-334.4166"/>
<polygon fill="#c0c0c0" stroke="#c0c0c0" stroke-width="2" points="230.0001,-334.4132 226.5,-324.4133 223.0001,-334.4133 230.0001,-334.4132"/>
</g>
<!-- 2 -->
<g id="node3" class="node">
<title>2</title>
<path fill="none" stroke="#56d8c1" stroke-width="2" stroke-dasharray="5,2" d="M138.5,-324C138.5,-324 76.5,-324 76.5,-324 70.5,-324 64.5,-318 64.5,-312 64.5,-312 64.5,-300 64.5,-300 64.5,-294 70.5,-288 76.5,-288 76.5,-288 138.5,-288 138.5,-288 144.5,-288 150.5,-294 150.5,-300 150.5,-300 150.5,-312 150.5,-312 150.5,-318 144.5,-324 138.5,-324"/>
<text text-anchor="middle" x="107.5" y="-303.5" font-family="sans" font-size="10.00" fill="#000000">tweak_header</text>
</g>
<!-- 2&#45;&gt;0 -->
<g id="edge2" class="edge">
<title>2&#45;&gt;0</title>
<path fill="none" stroke="#c0c0c0" stroke-width="2" d="M137.5287,-287.8314C152.7496,-278.6221 171.4128,-267.3301 187.7083,-257.4706"/>
<polygon fill="#c0c0c0" stroke="#c0c0c0" stroke-width="2" points="189.7369,-260.3341 196.4809,-252.1628 186.1132,-254.345 189.7369,-260.3341"/>
</g>
<!-- 3 -->
<g id="node4" class="node">
<title>3</title>
<path fill="none" stroke="#d85656" stroke-width="2" stroke-dasharray="5,2" d="M298,-617C298,-617 155,-617 155,-617 149,-617 143,-611 143,-605 143,-605 143,-588 143,-588 143,-582 149,-576 155,-576 155,-576 298,-576 298,-576 304,-576 310,-582 310,-588 310,-588 310,-605 310,-605 310,-611 304,-617 298,-617"/>
<text text-anchor="middle" x="226.5" y="-605" font-family="sans" font-size="10.00" fill="#000000">n_split_vcf</text>
<text text-anchor="middle" x="226.5" y="-594" font-family="sans" font-size="10.00" fill="#000000">region: 1:27694514&#45;55389026</text>
<text text-anchor="middle" x="226.5" y="-583" font-family="sans" font-size="10.00" fill="#000000">sample: vcfs.GATK</text>
</g>
<!-- 13 -->
<g id="node14" class="node">
<title>13</title>
<path fill="none" stroke="#568ad8" stroke-width="2" stroke-dasharray="5,2" d="M281.5,-540C281.5,-540 171.5,-540 171.5,-540 165.5,-540 159.5,-534 159.5,-528 159.5,-528 159.5,-516 159.5,-516 159.5,-510 165.5,-504 171.5,-504 171.5,-504 281.5,-504 281.5,-504 287.5,-504 293.5,-510 293.5,-516 293.5,-516 293.5,-528 293.5,-528 293.5,-534 287.5,-540 281.5,-540"/>
<text text-anchor="middle" x="226.5" y="-519.5" font-family="sans" font-size="10.00" fill="#000000">vt_bgzip_and_tabix_vcf</text>
</g>
<!-- 3&#45;&gt;13 -->
<g id="edge17" class="edge">
<title>3&#45;&gt;13</title>
<path fill="none" stroke="#c0c0c0" stroke-width="2" d="M226.5,-575.7476C226.5,-567.8767 226.5,-558.7743 226.5,-550.3232"/>
<polygon fill="#c0c0c0" stroke="#c0c0c0" stroke-width="2" points="230.0001,-550.1086 226.5,-540.1087 223.0001,-550.1087 230.0001,-550.1086"/>
</g>
<!-- 4 -->
<g id="node5" class="node">
<title>4</title>
<path fill="none" stroke="#568ad8" stroke-width="2" stroke-dasharray="5,2" d="M123.5,-540C123.5,-540 13.5,-540 13.5,-540 7.5,-540 1.5,-534 1.5,-528 1.5,-528 1.5,-516 1.5,-516 1.5,-510 7.5,-504 13.5,-504 13.5,-504 123.5,-504 123.5,-504 129.5,-504 135.5,-510 135.5,-516 135.5,-516 135.5,-528 135.5,-528 135.5,-534 129.5,-540 123.5,-540"/>
<text text-anchor="middle" x="68.5" y="-519.5" font-family="sans" font-size="10.00" fill="#000000">vt_bgzip_and_tabix_vcf</text>
</g>
<!-- 8 -->
<g id="node9" class="node">
<title>8</title>
<path fill="none" stroke="#88d856" stroke-width="2" stroke-dasharray="5,2" d="M112.5,-468C112.5,-468 50.5,-468 50.5,-468 44.5,-468 38.5,-462 38.5,-456 38.5,-456 38.5,-444 38.5,-444 38.5,-438 44.5,-432 50.5,-432 50.5,-432 112.5,-432 112.5,-432 118.5,-432 124.5,-438 124.5,-444 124.5,-444 124.5,-456 124.5,-456 124.5,-462 118.5,-468 112.5,-468"/>
<text text-anchor="middle" x="81.5" y="-447.5" font-family="sans" font-size="10.00" fill="#000000">VEP_annotate</text>
</g>
<!-- 4&#45;&gt;8 -->
<g id="edge11" class="edge">
<title>4&#45;&gt;8</title>
<path fill="none" stroke="#c0c0c0" stroke-width="2" d="M71.7804,-503.8314C73.1708,-496.131 74.8241,-486.9743 76.3692,-478.4166"/>
<polygon fill="#c0c0c0" stroke="#c0c0c0" stroke-width="2" points="79.8428,-478.8761 78.1754,-468.4133 72.9542,-477.6322 79.8428,-478.8761"/>
</g>
<!-- 7 -->
<g id="node8" class="node">
<title>7</title>
<path fill="none" stroke="#56d88a" stroke-width="2" d="M205.5,-108C205.5,-108 115.5,-108 115.5,-108 109.5,-108 103.5,-102 103.5,-96 103.5,-96 103.5,-84 103.5,-84 103.5,-78 109.5,-72 115.5,-72 115.5,-72 205.5,-72 205.5,-72 211.5,-72 217.5,-78 217.5,-84 217.5,-84 217.5,-96 217.5,-96 217.5,-102 211.5,-108 205.5,-108"/>
<text text-anchor="middle" x="160.5" y="-93" font-family="sans" font-size="10.00" fill="#000000">query_gemini</text>
<text text-anchor="middle" x="160.5" y="-82" font-family="sans" font-size="10.00" fill="#000000">family_name: IG001</text>
</g>
<!-- 5&#45;&gt;7 -->
<g id="edge9" class="edge">
<title>5&#45;&gt;7</title>
<path fill="none" stroke="#c0c0c0" stroke-width="2" d="M158.257,-143.8314C158.5779,-136.131 158.9594,-126.9743 159.316,-118.4166"/>
<polygon fill="#c0c0c0" stroke="#c0c0c0" stroke-width="2" points="162.8133,-118.5503 159.7328,-108.4133 155.8194,-118.2589 162.8133,-118.5503"/>
</g>
<!-- 19 -->
<g id="node20" class="node">
<title>19</title>
<path fill="none" stroke="#56d88a" stroke-width="2" d="M337.5,-108C337.5,-108 247.5,-108 247.5,-108 241.5,-108 235.5,-102 235.5,-96 235.5,-96 235.5,-84 235.5,-84 235.5,-78 241.5,-72 247.5,-72 247.5,-72 337.5,-72 337.5,-72 343.5,-72 349.5,-78 349.5,-84 349.5,-84 349.5,-96 349.5,-96 349.5,-102 343.5,-108 337.5,-108"/>
<text text-anchor="middle" x="292.5" y="-93" font-family="sans" font-size="10.00" fill="#000000">query_gemini</text>
<text text-anchor="middle" x="292.5" y="-82" font-family="sans" font-size="10.00" fill="#000000">family_name: IG002</text>
</g>
<!-- 5&#45;&gt;19 -->
<g id="edge21" class="edge">
<title>5&#45;&gt;19</title>
<path fill="none" stroke="#c0c0c0" stroke-width="2" d="M191.5662,-143.8314C209.1533,-134.4516 230.7916,-122.9112 249.5168,-112.9244"/>
<polygon fill="#c0c0c0" stroke="#c0c0c0" stroke-width="2" points="251.2682,-115.957 258.4447,-108.1628 247.9741,-109.7805 251.2682,-115.957"/>
</g>
<!-- 6 -->
<g id="node7" class="node">
<title>6</title>
<path fill="none" stroke="#568ad8" stroke-width="2" stroke-dasharray="5,2" d="M449.5,-540C449.5,-540 339.5,-540 339.5,-540 333.5,-540 327.5,-534 327.5,-528 327.5,-528 327.5,-516 327.5,-516 327.5,-510 333.5,-504 339.5,-504 339.5,-504 449.5,-504 449.5,-504 455.5,-504 461.5,-510 461.5,-516 461.5,-516 461.5,-528 461.5,-528 461.5,-534 455.5,-540 449.5,-540"/>
<text text-anchor="middle" x="394.5" y="-519.5" font-family="sans" font-size="10.00" fill="#000000">vt_bgzip_and_tabix_vcf</text>
</g>
<!-- 12 -->
<g id="node13" class="node">
<title>12</title>
<path fill="none" stroke="#88d856" stroke-width="2" stroke-dasharray="5,2" d="M414.5,-468C414.5,-468 352.5,-468 352.5,-468 346.5,-468 340.5,-462 340.5,-456 340.5,-456 340.5,-444 340.5,-444 340.5,-438 346.5,-432 352.5,-432 352.5,-432 414.5,-432 414.5,-432 420.5,-432 426.5,-438 426.5,-444 426.5,-444 426.5,-456 426.5,-456 426.5,-462 420.5,-468 414.5,-468"/>
<text text-anchor="middle" x="383.5" y="-447.5" font-family="sans" font-size="10.00" fill="#000000">VEP_annotate</text>
</g>
<!-- 6&#45;&gt;12 -->
<g id="edge16" class="edge">
<title>6&#45;&gt;12</title>
<path fill="none" stroke="#c0c0c0" stroke-width="2" d="M391.7242,-503.8314C390.5478,-496.131 389.1489,-486.9743 387.8414,-478.4166"/>
<polygon fill="#c0c0c0" stroke="#c0c0c0" stroke-width="2" points="391.2833,-477.7699 386.3131,-468.4133 384.3636,-478.8272 391.2833,-477.7699"/>
</g>
<!-- 11 -->
<g id="node12" class="node">
<title>11</title>
<path fill="none" stroke="#bed856" stroke-width="2" d="M241.5,-36C241.5,-36 211.5,-36 211.5,-36 205.5,-36 199.5,-30 199.5,-24 199.5,-24 199.5,-12 199.5,-12 199.5,-6 205.5,0 211.5,0 211.5,0 241.5,0 241.5,0 247.5,0 253.5,-6 253.5,-12 253.5,-12 253.5,-24 253.5,-24 253.5,-30 247.5,-36 241.5,-36"/>
<text text-anchor="middle" x="226.5" y="-15.5" font-family="sans" font-size="10.00" fill="#000000">all</text>
</g>
<!-- 7&#45;&gt;11 -->
<g id="edge14" class="edge">
<title>7&#45;&gt;11</title>
<path fill="none" stroke="#c0c0c0" stroke-width="2" d="M177.1546,-71.8314C184.9114,-63.3694 194.2802,-53.1489 202.761,-43.8971"/>
<polygon fill="#c0c0c0" stroke="#c0c0c0" stroke-width="2" points="205.4439,-46.1499 209.6212,-36.4133 200.2838,-41.4198 205.4439,-46.1499"/>
</g>
<!-- 14 -->
<g id="node15" class="node">
<title>14</title>
<path fill="none" stroke="#d8bc56" stroke-width="2" stroke-dasharray="5,2" d="M133,-396C133,-396 50,-396 50,-396 44,-396 38,-390 38,-384 38,-384 38,-372 38,-372 38,-366 44,-360 50,-360 50,-360 133,-360 133,-360 139,-360 145,-366 145,-372 145,-372 145,-384 145,-384 145,-390 139,-396 133,-396"/>
<text text-anchor="middle" x="91.5" y="-375.5" font-family="sans" font-size="10.00" fill="#000000">vcfanno_annotate</text>
</g>
<!-- 8&#45;&gt;14 -->
<g id="edge18" class="edge">
<title>8&#45;&gt;14</title>
<path fill="none" stroke="#c0c0c0" stroke-width="2" d="M84.0234,-431.8314C85.0929,-424.131 86.3647,-414.9743 87.5532,-406.4166"/>
<polygon fill="#c0c0c0" stroke="#c0c0c0" stroke-width="2" points="91.0336,-406.7997 88.9426,-396.4133 84.1001,-405.8367 91.0336,-406.7997"/>
</g>
<!-- 9&#45;&gt;7 -->
<g id="edge10" class="edge">
<title>9&#45;&gt;7</title>
<path fill="none" stroke="#c0c0c0" stroke-width="2" d="M261.782,-144.0171C244.0636,-134.5673 222.161,-122.8858 203.2613,-112.806"/>
<polygon fill="#c0c0c0" stroke="#c0c0c0" stroke-width="2" points="204.7266,-109.6209 194.256,-108.0032 201.4325,-115.7974 204.7266,-109.6209"/>
</g>
<!-- 9&#45;&gt;19 -->
<g id="edge22" class="edge">
<title>9&#45;&gt;19</title>
<path fill="none" stroke="#c0c0c0" stroke-width="2" d="M294.743,-143.8314C294.4221,-136.131 294.0406,-126.9743 293.684,-118.4166"/>
<polygon fill="#c0c0c0" stroke="#c0c0c0" stroke-width="2" points="297.1806,-118.2589 293.2672,-108.4133 290.1867,-118.5503 297.1806,-118.2589"/>
</g>
<!-- 10 -->
<g id="node11" class="node">
<title>10</title>
<path fill="none" stroke="#d8bc56" stroke-width="2" stroke-dasharray="5,2" d="M414,-396C414,-396 331,-396 331,-396 325,-396 319,-390 319,-384 319,-384 319,-372 319,-372 319,-366 325,-360 331,-360 331,-360 414,-360 414,-360 420,-360 426,-366 426,-372 426,-372 426,-384 426,-384 426,-390 420,-396 414,-396"/>
<text text-anchor="middle" x="372.5" y="-375.5" font-family="sans" font-size="10.00" fill="#000000">vcfanno_annotate</text>
</g>
<!-- 16 -->
<g id="node17" class="node">
<title>16</title>
<path fill="none" stroke="#56d8c1" stroke-width="2" stroke-dasharray="5,2" d="M382.5,-324C382.5,-324 320.5,-324 320.5,-324 314.5,-324 308.5,-318 308.5,-312 308.5,-312 308.5,-300 308.5,-300 308.5,-294 314.5,-288 320.5,-288 320.5,-288 382.5,-288 382.5,-288 388.5,-288 394.5,-294 394.5,-300 394.5,-300 394.5,-312 394.5,-312 394.5,-318 388.5,-324 382.5,-324"/>
<text text-anchor="middle" x="351.5" y="-303.5" font-family="sans" font-size="10.00" fill="#000000">tweak_header</text>
</g>
<!-- 10&#45;&gt;16 -->
<g id="edge20" class="edge">
<title>10&#45;&gt;16</title>
<path fill="none" stroke="#c0c0c0" stroke-width="2" d="M367.2008,-359.8314C364.9302,-352.0463 362.2254,-342.7729 359.706,-334.1347"/>
<polygon fill="#c0c0c0" stroke="#c0c0c0" stroke-width="2" points="363.0306,-333.0332 356.8705,-324.4133 356.3106,-334.9933 363.0306,-333.0332"/>
</g>
<!-- 12&#45;&gt;10 -->
<g id="edge13" class="edge">
<title>12&#45;&gt;10</title>
<path fill="none" stroke="#c0c0c0" stroke-width="2" d="M380.7242,-431.8314C379.5478,-424.131 378.1489,-414.9743 376.8414,-406.4166"/>
<polygon fill="#c0c0c0" stroke="#c0c0c0" stroke-width="2" points="380.2833,-405.7699 375.3131,-396.4133 373.3636,-406.8272 380.2833,-405.7699"/>
</g>
<!-- 20 -->
<g id="node21" class="node">
<title>20</title>
<path fill="none" stroke="#88d856" stroke-width="2" stroke-dasharray="5,2" d="M257.5,-468C257.5,-468 195.5,-468 195.5,-468 189.5,-468 183.5,-462 183.5,-456 183.5,-456 183.5,-444 183.5,-444 183.5,-438 189.5,-432 195.5,-432 195.5,-432 257.5,-432 257.5,-432 263.5,-432 269.5,-438 269.5,-444 269.5,-444 269.5,-456 269.5,-456 269.5,-462 263.5,-468 257.5,-468"/>
<text text-anchor="middle" x="226.5" y="-447.5" font-family="sans" font-size="10.00" fill="#000000">VEP_annotate</text>
</g>
<!-- 13&#45;&gt;20 -->
<g id="edge23" class="edge">
<title>13&#45;&gt;20</title>
<path fill="none" stroke="#c0c0c0" stroke-width="2" d="M226.5,-503.8314C226.5,-496.131 226.5,-486.9743 226.5,-478.4166"/>
<polygon fill="#c0c0c0" stroke="#c0c0c0" stroke-width="2" points="230.0001,-478.4132 226.5,-468.4133 223.0001,-478.4133 230.0001,-478.4132"/>
</g>
<!-- 14&#45;&gt;2 -->
<g id="edge5" class="edge">
<title>14&#45;&gt;2</title>
<path fill="none" stroke="#c0c0c0" stroke-width="2" d="M95.5375,-359.8314C97.2487,-352.131 99.2835,-342.9743 101.1852,-334.4166"/>
<polygon fill="#c0c0c0" stroke="#c0c0c0" stroke-width="2" points="104.6554,-334.9344 103.4082,-324.4133 97.8221,-333.4159 104.6554,-334.9344"/>
</g>
<!-- 15&#45;&gt;0 -->
<g id="edge3" class="edge">
<title>15&#45;&gt;0</title>
<path fill="none" stroke="#c0c0c0" stroke-width="2" d="M226.5,-287.8314C226.5,-280.131 226.5,-270.9743 226.5,-262.4166"/>
<polygon fill="#c0c0c0" stroke="#c0c0c0" stroke-width="2" points="230.0001,-262.4132 226.5,-252.4133 223.0001,-262.4133 230.0001,-262.4132"/>
</g>
<!-- 16&#45;&gt;0 -->
<g id="edge1" class="edge">
<title>16&#45;&gt;0</title>
<path fill="none" stroke="#c0c0c0" stroke-width="2" d="M319.9572,-287.8314C303.8209,-278.5368 284.0014,-267.1208 266.7728,-257.1971"/>
<polygon fill="#c0c0c0" stroke="#c0c0c0" stroke-width="2" points="268.445,-254.1212 258.0327,-252.1628 264.9511,-260.187 268.445,-254.1212"/>
</g>
<!-- 17 -->
<g id="node18" class="node">
<title>17</title>
<path fill="none" stroke="#d85656" stroke-width="2" stroke-dasharray="5,2" d="M113,-617C113,-617 12,-617 12,-617 6,-617 0,-611 0,-605 0,-605 0,-588 0,-588 0,-582 6,-576 12,-576 12,-576 113,-576 113,-576 119,-576 125,-582 125,-588 125,-588 125,-605 125,-605 125,-611 119,-617 113,-617"/>
<text text-anchor="middle" x="62.5" y="-605" font-family="sans" font-size="10.00" fill="#000000">n_split_vcf</text>
<text text-anchor="middle" x="62.5" y="-594" font-family="sans" font-size="10.00" fill="#000000">region: 1:1&#45;27694513</text>
<text text-anchor="middle" x="62.5" y="-583" font-family="sans" font-size="10.00" fill="#000000">sample: vcfs.GATK</text>
</g>
<!-- 17&#45;&gt;4 -->
<g id="edge6" class="edge">
<title>17&#45;&gt;4</title>
<path fill="none" stroke="#c0c0c0" stroke-width="2" d="M64.1713,-575.7476C64.8052,-567.8767 65.5383,-558.7743 66.2189,-550.3232"/>
<polygon fill="#c0c0c0" stroke="#c0c0c0" stroke-width="2" points="69.7274,-550.3574 67.0416,-540.1087 62.75,-549.7954 69.7274,-550.3574"/>
</g>
<!-- 18 -->
<g id="node19" class="node">
<title>18</title>
<path fill="none" stroke="#d85656" stroke-width="2" stroke-dasharray="5,2" d="M483,-617C483,-617 340,-617 340,-617 334,-617 328,-611 328,-605 328,-605 328,-588 328,-588 328,-582 334,-576 340,-576 340,-576 483,-576 483,-576 489,-576 495,-582 495,-588 495,-588 495,-605 495,-605 495,-611 489,-617 483,-617"/>
<text text-anchor="middle" x="411.5" y="-605" font-family="sans" font-size="10.00" fill="#000000">n_split_vcf</text>
<text text-anchor="middle" x="411.5" y="-594" font-family="sans" font-size="10.00" fill="#000000">region: 1:55389027&#45;83083540</text>
<text text-anchor="middle" x="411.5" y="-583" font-family="sans" font-size="10.00" fill="#000000">sample: vcfs.GATK</text>
</g>
<!-- 18&#45;&gt;6 -->
<g id="edge8" class="edge">
<title>18&#45;&gt;6</title>
<path fill="none" stroke="#c0c0c0" stroke-width="2" d="M406.7646,-575.7476C404.9485,-567.7892 402.8453,-558.5718 400.8988,-550.0418"/>
<polygon fill="#c0c0c0" stroke="#c0c0c0" stroke-width="2" points="404.2692,-549.0794 398.6322,-540.1087 397.4447,-550.6367 404.2692,-549.0794"/>
</g>
<!-- 19&#45;&gt;11 -->
<g id="edge15" class="edge">
<title>19&#45;&gt;11</title>
<path fill="none" stroke="#c0c0c0" stroke-width="2" d="M275.8454,-71.8314C268.0886,-63.3694 258.7198,-53.1489 250.239,-43.8971"/>
<polygon fill="#c0c0c0" stroke="#c0c0c0" stroke-width="2" points="252.7162,-41.4198 243.3788,-36.4133 247.5561,-46.1499 252.7162,-41.4198"/>
</g>
<!-- 20&#45;&gt;1 -->
<g id="edge4" class="edge">
<title>20&#45;&gt;1</title>
<path fill="none" stroke="#c0c0c0" stroke-width="2" d="M226.5,-431.8314C226.5,-424.131 226.5,-414.9743 226.5,-406.4166"/>
<polygon fill="#c0c0c0" stroke="#c0c0c0" stroke-width="2" points="230.0001,-406.4132 226.5,-396.4133 223.0001,-406.4133 230.0001,-406.4132"/>
</g>
</g>
</svg>
